<?xml version="1.0" encoding="UTF-8" standalone="no"?>
<svg width="40px" height="40px" viewBox="0 0 40 40" version="1.1" xmlns="http://www.w3.org/2000/svg" xmlns:xlink="http://www.w3.org/1999/xlink">
    <title>Twitter icon</title>
    <desc></desc>
    <defs></defs>
    <g id="mobile" stroke="none" stroke-width="1" fill-rule="evenodd">
        <g id="index" transform="translate(-74.000000, -266.000000)">
            <g id="sns" transform="translate(25.000000, 266.000000)">
                <g id="icon_tw" transform="translate(49.000000, 0.000000)">
                    <circle id="path" cx="20" cy="20" r="20"></circle>
                    <path d="M29,14.7318571 C28.3378571,15.0262857 27.6268571,15.2242857 26.8798571,15.313 C27.641,14.8565714 28.2272857,14.1327143 28.5024286,13.27 C27.7901429,13.693 26.9994286,14.0002857 26.1598571,14.1661429 C25.4861429,13.4487143 24.5257143,13 23.4624286,13 C21.4232857,13 19.7698571,14.6534286 19.7698571,16.6925714 C19.7698571,16.9818571 19.8032857,17.2634286 19.8662857,17.5334286 C16.7972857,17.3791429 14.0754286,15.9095714 12.2535714,13.675 C11.936,14.2201429 11.7534286,14.8565714 11.7534286,15.5328571 C11.7534286,16.8134286 12.404,17.9435714 13.3952857,18.6057143 C12.791,18.5864286 12.2214286,18.4205714 11.7225714,18.1441429 L11.7225714,18.1917143 C11.7225714,19.9814286 12.9941429,21.4728571 14.6848571,21.8122857 C14.375,21.8958571 14.0497143,21.9408571 13.7128571,21.9408571 C13.4737143,21.9408571 13.2435714,21.9151429 13.0172857,21.8752857 C13.4878571,23.3435714 14.852,24.4094286 16.4668571,24.4377143 C15.2042857,25.429 13.61,26.0191429 11.882,26.0191429 C11.5837143,26.0191429 11.2892857,26.0011429 11,25.9664286 C12.6341429,27.0155714 14.5742857,27.6262857 16.6597143,27.6262857 C23.4534286,27.6262857 27.1691429,21.9987143 27.1691429,17.1194286 C27.1691429,16.96 27.164,16.8005714 27.1562857,16.6424286 C27.8775714,16.1217143 28.505,15.4724286 29,14.7318571" id="path" fill="#FFFFFF"></path>
                </g>
            </g>
        </g>
    </g>
</svg>
