<?xml version="1.0" encoding="UTF-8" standalone="no"?>
<svg width="180px" height="96px" viewBox="0 0 180 96" version="1.1" xmlns="http://www.w3.org/2000/svg" xmlns:xlink="http://www.w3.org/1999/xlink">
    <title>Design Archives</title>
    <desc>WordCamp Tokyo 2015</desc>
    <defs></defs>
    <g id="mobile" stroke="none" stroke-width="1" fill="none" fill-rule="evenodd">
        <g id="index" transform="translate(-25.000000, -135.000000)" fill="#222222">
            <path d="M189.166248,199.12423 L189.708838,199.12423 C189.939028,199.913455 190.234983,200.710889 190.596711,201.516557 C190.95844,202.322224 191.443477,203.062112 192.051838,203.736242 C192.660199,204.410372 193.408308,204.961177 194.296186,205.388674 C195.184065,205.816171 196.252791,206.029916 197.502398,206.029916 C198.554698,206.029916 199.491889,205.709298 200.313999,205.068053 C201.136108,204.426807 201.547157,203.382744 201.547157,201.935831 C201.547157,200.686224 201.226539,199.80658 200.585293,199.296872 C199.944048,198.787164 199.195939,198.384336 198.340945,198.088377 L194.493492,196.756566 C194.000226,196.592144 193.465863,196.38662 192.890386,196.139987 C192.314909,195.893354 191.780546,195.548073 191.28728,195.104134 C190.794014,194.660195 190.391187,194.092947 190.078785,193.402375 C189.766383,192.711803 189.610185,191.823938 189.610185,190.738754 C189.610185,189.817991 189.791046,188.96301 190.152774,188.173784 C190.514503,187.384559 191.007761,186.693997 191.632564,186.102078 C192.257368,185.51016 193.005476,185.049785 193.876912,184.720941 C194.748349,184.392097 195.693761,184.227678 196.713176,184.227678 C197.436633,184.227678 198.020322,184.285225 198.464261,184.40032 C198.9082,184.515415 199.294586,184.630509 199.62343,184.745604 C199.952274,184.8607 200.248229,184.975793 200.511304,185.090889 C200.774379,185.205984 201.086776,185.263531 201.448504,185.263531 C201.810232,185.263531 202.073304,185.131995 202.237725,184.86892 L202.780315,184.86892 L202.780315,190.492122 L202.237725,190.492122 C202.007535,189.768665 201.744464,189.069883 201.448504,188.395753 C201.152545,187.721623 200.799043,187.121492 200.387988,186.595342 C199.976933,186.069192 199.467233,185.658143 198.858872,185.362184 C198.250511,185.066224 197.535286,184.918247 196.713176,184.918247 C195.134726,184.918247 193.909801,185.271748 193.038365,185.978763 C192.166929,186.685777 191.731217,187.631189 191.731217,188.815027 C191.731217,189.867327 192.101161,190.664761 192.84106,191.207354 C193.580958,191.749946 194.674348,192.251425 196.12126,192.711807 L199.722083,193.895639 C201.267649,194.421789 202.533679,195.145234 203.52021,196.065997 C204.506742,196.98676 205,198.203464 205,199.716146 C205,200.604024 204.82736,201.475447 204.482074,202.330441 C204.136787,203.185435 203.627087,203.933544 202.952957,204.574789 C202.278827,205.216035 201.45673,205.733956 200.486641,206.128569 C199.516551,206.523181 198.40672,206.720485 197.157113,206.720485 C196.433657,206.720485 195.767758,206.646496 195.159397,206.498516 C194.551036,206.350536 193.99201,206.194338 193.482302,206.029916 C192.972594,205.865494 192.503998,205.709296 192.076501,205.561316 C191.649004,205.413336 191.254398,205.339347 190.892669,205.339347 C190.530941,205.339347 190.26787,205.413336 190.103448,205.561316 C189.939026,205.709296 189.807491,205.865494 189.708838,206.029916 L189.166248,206.029916 L189.166248,199.12423 Z M170.956611,193.796986 C170.956611,194.12583 170.94839,194.46289 170.931948,194.808176 C170.915506,195.153462 170.907285,195.589173 170.907285,196.115324 C170.907285,197.200508 170.973052,198.335003 171.10459,199.51884 C171.236128,200.702678 171.523862,201.771405 171.967801,202.725052 C172.41174,203.678699 173.069418,204.467912 173.940854,205.092716 C174.81229,205.717519 175.971447,206.029916 177.41836,206.029916 C178.865273,206.029916 180.057314,205.816171 180.994519,205.388674 C181.931724,204.961177 182.671612,204.443255 183.214204,203.834894 C183.756797,203.226533 184.159624,202.60996 184.422699,201.985157 C184.685774,201.360354 184.883078,200.850653 185.014615,200.456041 L185.75451,200.60402 C185.655857,200.965748 185.466775,201.483669 185.187257,202.157799 C184.90774,202.831929 184.463808,203.506049 183.855446,204.180179 C183.247085,204.854309 182.424988,205.446219 181.38913,205.955927 C180.353272,206.465635 179.013253,206.720485 177.369034,206.720485 C175.724815,206.720485 174.203935,206.457414 172.806348,205.931263 C171.408762,205.405113 170.200279,204.648784 169.180863,203.662252 C168.161447,202.675721 167.372234,201.500122 166.813199,200.13542 C166.254165,198.770718 165.974652,197.249838 165.974652,195.572734 C165.974652,194.125821 166.262386,192.720035 166.837862,191.355333 C167.413339,189.990631 168.202553,188.782148 169.205526,187.729847 C170.2085,186.677547 171.384099,185.830787 172.732359,185.189541 C174.080619,184.548296 175.52751,184.227678 177.073076,184.227678 C177.993839,184.227678 178.980356,184.392097 180.032656,184.720941 C181.084956,185.049785 182.063252,185.584148 182.967573,186.324047 C183.871893,187.063946 184.628223,188.042241 185.236584,189.258964 C185.844945,190.475686 186.149121,191.988345 186.149121,193.796986 L170.956611,193.796986 Z M181.117835,193.106417 C181.183604,192.646036 181.216488,192.218545 181.216488,191.823933 L181.216488,190.590775 C181.216488,189.472705 181.109615,188.551957 180.895867,187.8285 C180.682118,187.105044 180.386163,186.529575 180.007993,186.102078 C179.629822,185.674581 179.169448,185.370405 178.626855,185.189541 C178.084263,185.008677 177.500574,184.918247 176.875771,184.918247 C175.757702,184.918247 174.836953,185.140213 174.113496,185.584152 C173.39004,186.028091 172.814572,186.628222 172.387075,187.384563 C171.959578,188.140904 171.63896,189.012327 171.425211,189.998859 C171.211463,190.98539 171.071706,192.021233 171.005937,193.106417 L181.117835,193.106417 Z M143.12834,184.86892 L155.065312,184.86892 L155.065312,185.559489 L151.020553,185.559489 L157.383649,201.047957 L163.993378,185.559489 L159.948618,185.559489 L159.948618,184.86892 L167.446221,184.86892 L167.446221,185.559489 L164.782599,185.559489 L155.459922,207.657685 L146.48253,185.559489 L143.12834,185.559489 L143.12834,184.86892 Z M131.824389,205.339347 L135.622517,205.339347 L135.622517,185.559489 L131.824389,185.559489 L131.824389,184.86892 L139.864581,184.86892 L139.864581,205.339347 L143.662709,205.339347 L143.662709,206.029916 L131.824389,206.029916 L131.824389,205.339347 Z M101.12697,200.60402 C101.028317,200.965748 100.839234,201.483669 100.559717,202.157799 C100.2802,202.831929 99.8362672,203.506049 99.2279061,204.180179 C98.619545,204.854309 97.7974477,205.446219 96.7615896,205.955927 C95.7257314,206.465635 94.3857129,206.720485 92.7414936,206.720485 C91.491887,206.720485 90.1929733,206.523181 88.8447135,206.128569 C87.4964537,205.733956 86.2633078,205.100941 85.1452387,204.229505 C84.0271696,203.358069 83.1146416,202.215354 82.4076274,200.801325 C81.7006131,199.387296 81.3471113,197.64445 81.3471113,195.572734 C81.3471113,193.961399 81.6512872,192.465182 82.2596484,191.084038 C82.8680095,189.702894 83.6901068,188.502632 84.7259649,187.483216 C85.761823,186.4638 86.978527,185.666365 88.3761134,185.090889 C89.7736997,184.515412 91.2616958,184.227678 92.8401463,184.227678 C93.7280247,184.227678 94.6405527,184.334551 95.5777576,184.548299 C96.5149626,184.762048 97.3699438,185.090886 98.1427268,185.534826 C98.9155099,185.978765 99.5567457,186.554233 100.066454,187.261247 C100.576162,187.968262 100.831012,188.831464 100.831012,189.85088 C100.831012,190.541452 100.609046,191.108699 100.165106,191.552638 C99.7211672,191.996577 99.0881523,192.218543 98.2660426,192.218543 C97.7070081,192.218543 97.1726449,192.095229 96.6629369,191.848596 C96.1532289,191.601963 95.8983788,191.182693 95.8983788,190.590775 C95.8983788,190.130393 96.0134724,189.571367 96.2436631,188.913679 C96.4738538,188.255992 96.5889474,187.713407 96.5889474,187.28591 C96.5889474,186.52957 96.2107826,185.94588 95.4544418,185.534826 C94.6981009,185.123771 93.8266778,184.918247 92.8401463,184.918247 C92.1166898,184.918247 91.3685813,185.008677 90.5957982,185.189541 C89.8230152,185.370405 89.1160115,185.822559 88.474766,186.546015 C87.8335205,187.269472 87.3073783,188.35464 86.8963234,189.801553 C86.4852686,191.248466 86.2797443,193.2215 86.2797443,195.720713 C86.2797443,197.134742 86.370175,198.466539 86.5510391,199.716146 C86.7319032,200.965752 87.0607422,202.059142 87.5375657,202.996347 C88.0143893,203.933552 88.6720671,204.673439 89.510619,205.216032 C90.3491708,205.758624 91.4425602,206.029916 92.7908199,206.029916 C94.2377329,206.029916 95.4297739,205.816171 96.3669789,205.388674 C97.3041839,204.961177 98.0440714,204.443255 98.5866638,203.834894 C99.1292561,203.226533 99.5320838,202.60996 99.7951589,201.985157 C100.058234,201.360354 100.255537,200.850653 100.387075,200.456041 L101.12697,200.60402 Z M42.5049491,170.429754 L29.3407171,205.339347 L25,205.339347 L25,206.029916 L35.6051611,206.029916 L35.6051611,205.339347 L30.1299384,205.339347 L35.3092031,191.626628 L46.7529118,191.626628 L51.9321765,205.339347 L46.4569538,205.339347 L46.4569538,206.029916 L61.5302582,206.029916 L73.7426355,206.029916 L73.7426355,205.339347 L69.4512447,205.339347 L69.4512447,194.043618 C69.4512447,192.662474 69.6238851,191.437549 69.9691712,190.368806 C70.3144572,189.300064 70.7419478,188.387536 71.2516558,187.631195 C71.7613638,186.874854 72.3121689,186.299386 72.9040879,185.904773 C73.4960068,185.510161 74.0550329,185.312857 74.5811831,185.312857 C75.7321366,185.312857 76.3076047,185.838999 76.3076047,186.8913 C76.3076047,187.318797 76.2747208,187.647636 76.208952,187.877826 C76.1431832,188.108017 76.0691945,188.313541 75.9869835,188.494406 C75.9047726,188.67527 75.8307838,188.856131 75.765015,189.036995 C75.6992463,189.217859 75.6663624,189.456267 75.6663624,189.752227 C75.6663624,190.67299 76.389808,191.133364 77.8367209,191.133364 C78.4944086,191.133364 79.0698767,190.952503 79.5631425,190.590775 C80.0564083,190.229046 80.3030374,189.505601 80.3030374,188.420416 C80.3030374,187.92715 80.2208277,187.433892 80.0564058,186.940626 C79.8919839,186.44736 79.6289127,186.011649 79.2671845,185.633478 C78.9054563,185.255308 78.4450818,184.942911 77.8860472,184.696278 C77.3270127,184.449645 76.6693349,184.326331 75.912994,184.326331 C74.8606937,184.326331 73.9646077,184.523634 73.224709,184.918247 C72.4848104,185.312859 71.8517954,185.797897 71.3256453,186.373373 C70.7994951,186.94885 70.3884465,187.548981 70.092487,188.173784 C69.7965276,188.798588 69.5827823,189.357614 69.4512447,189.85088 L69.3525921,189.85088 L69.3525921,184.86892 L61.4110528,184.86892 L61.4110528,185.559489 L65.2091803,185.559489 L65.2091803,205.339347 L61.5302582,205.339347 L57.2594202,205.339347 L43.9706147,170.358521 C44.4548377,170.323299 44.9136683,170.276792 45.3471114,170.219 C46.08701,170.120347 46.8104556,169.972369 47.5174699,169.775063 C48.2244842,169.577757 48.9725927,169.298244 49.761818,168.936515 C51.1758465,168.344597 52.4994231,167.563604 53.7325876,166.593515 C54.965752,165.623425 56.0426994,164.472489 56.9634622,163.140672 C57.884225,161.808854 58.6076706,160.279753 59.1338208,158.553323 C59.6599709,156.826893 59.9230421,154.878522 59.9230421,152.708153 C59.9230421,150.833743 59.7010758,149.041571 59.2571366,147.331583 C58.8131974,145.621595 58.1226357,144.043168 57.1854307,142.596255 C56.2482257,141.149342 55.0479637,139.875091 53.5846086,138.773464 C52.1212535,137.671837 50.3866282,136.792193 48.3806807,136.134506 C47.6901086,135.904315 47.0406518,135.715233 46.4322906,135.567253 C45.8239295,135.419273 45.1826936,135.304179 44.5085637,135.221968 C43.8344339,135.139758 43.1109882,135.082211 42.3382052,135.049326 C41.5654222,135.016442 40.6857781,135 39.6992465,135 C39.2388651,135 38.7784906,135.008221 38.3181093,135.024663 C37.8577279,135.041105 37.3973534,135.049326 36.936972,135.049326 C36.4765906,135.082211 36.0162161,135.106874 35.5558347,135.123316 C35.0954534,135.139758 34.6350789,135.147979 34.1746975,135.147979 L25,135.147979 L25,135.838548 L30.4752227,135.838548 L30.4752227,169.577758 L25,169.577758 L25,170.268326 L33.3854762,170.268326 C33.878742,170.268326 34.3966633,170.276547 34.9392556,170.29299 C35.481848,170.309432 36.0326531,170.334095 36.5916877,170.366979 C37.1507222,170.399863 37.7097484,170.424526 38.2687829,170.440969 C38.8278175,170.457411 39.3539597,170.465632 39.8472255,170.465632 C40.8288115,170.465632 41.714713,170.453673 42.5049491,170.429754 L42.5049491,170.429754 Z M41.0310574,176.582097 L35.6051611,190.936059 L46.4569538,190.936059 L41.0310574,176.582097 Z M141.396803,149.797899 L144.517698,149.797899 L144.517698,169.577758 L140.71957,169.577758 L140.71957,170.268326 L152.55789,170.268326 L152.55789,169.577758 L148.759762,169.577758 L148.759762,158.430007 C148.759762,157.114632 148.965286,155.897928 149.376341,154.779859 C149.787396,153.661789 150.354643,152.691715 151.0781,151.869605 C151.801556,151.047495 152.640095,150.40626 153.593743,149.945878 C154.54739,149.485497 155.550348,149.25531 156.602649,149.25531 C157.88514,149.25531 158.830552,149.666358 159.438913,150.488468 C160.047274,151.310577 160.35145,152.362862 160.35145,153.645353 L160.35145,169.577758 L156.553322,169.577758 L156.553322,170.268326 L168.391642,170.268326 L168.391642,169.577758 L164.593514,169.577758 L164.593514,155.174469 C164.593514,152.872562 163.911174,151.195484 162.546472,150.143183 C161.18177,149.090883 159.41426,148.564741 157.243891,148.564741 C155.829862,148.564741 154.6296,148.786707 153.643069,149.230646 C152.656537,149.674586 151.83444,150.208949 151.176752,150.833752 C150.519065,151.458555 150.001143,152.099791 149.622973,152.757479 C149.244803,153.415167 148.957068,153.957751 148.759762,154.385248 L148.661109,154.385248 L148.661109,149.107331 L140.991181,149.107331 C140.897542,149.018826 140.791248,148.944836 140.672299,148.885362 C140.113265,148.605845 139.504913,148.466088 138.847225,148.466088 C137.794925,148.466088 136.915281,148.729159 136.208267,149.25531 C135.501252,149.78146 134.966889,150.356928 134.605161,150.981731 C134.111895,150.488465 133.330903,149.945881 132.26216,149.353962 C131.193418,148.762043 129.919167,148.466088 128.439369,148.466088 C127.485722,148.466088 126.490985,148.630508 125.455126,148.959352 C124.419268,149.288195 123.473856,149.773233 122.618862,150.414478 C121.763868,151.055724 121.056865,151.836716 120.49783,152.757479 C119.938796,153.678242 119.659283,154.714084 119.659283,155.865038 C119.659283,158.101176 120.612915,159.876906 122.52021,161.192282 C122.092713,161.389588 121.607675,161.636217 121.065083,161.932177 C120.522491,162.228136 120.01279,162.614522 119.535967,163.091345 C119.059143,163.568169 118.656316,164.127195 118.327472,164.768441 C117.998628,165.409686 117.834208,166.174236 117.834208,167.062115 C117.834208,168.772103 118.35213,169.980586 119.387988,170.6876 C120.423846,171.394614 122.026936,171.748116 124.197305,171.846769 C123.506733,172.109844 122.816171,172.438683 122.125599,172.833296 C121.435027,173.227908 120.818454,173.696504 120.275862,174.239096 C119.733269,174.781688 119.289337,175.406482 118.944051,176.113497 C118.598765,176.820511 118.426124,177.601503 118.426124,178.456497 C118.426124,179.344376 118.648091,180.150031 119.09203,180.873487 C119.535969,181.596944 120.152542,182.213517 120.941767,182.723225 C121.730992,183.232933 122.659962,183.63576 123.728705,183.93172 C124.797447,184.227679 125.973047,184.375657 127.255538,184.375657 C128.669566,184.375657 130.05069,184.137249 131.398949,183.660425 C132.747209,183.183602 133.93925,182.509482 134.975108,181.638046 C136.010966,180.766609 136.841285,179.738988 137.466088,178.55515 C138.090891,177.371312 138.403288,176.055956 138.403288,174.609043 C138.403288,172.241368 137.720948,170.506742 136.356246,169.405116 C134.991544,168.303489 133.158267,167.752684 130.85636,167.752684 L123.062799,167.752684 C122.635302,167.752684 122.224254,167.7198 121.829641,167.654031 C121.435029,167.588262 121.081527,167.473168 120.769125,167.308747 C120.456723,167.144325 120.201873,166.897695 120.004567,166.568852 C119.807261,166.240008 119.708609,165.828959 119.708609,165.335693 C119.708609,164.809543 119.823703,164.340948 120.053893,163.929893 C120.284084,163.518838 120.571818,163.165336 120.917104,162.869377 C121.26239,162.573417 121.640555,162.326788 122.05161,162.129482 C122.462664,161.932176 122.84905,161.751314 123.210778,161.586892 C123.67116,161.817083 124.328838,162.088375 125.183832,162.400777 C126.038826,162.713178 127.041784,162.869377 128.192738,162.869377 C129.310807,162.869377 130.404196,162.696736 131.472939,162.35145 C132.541681,162.006164 133.478872,161.521127 134.28454,160.896324 C135.090207,160.27152 135.739664,159.548075 136.23293,158.725965 C136.726195,157.903855 136.972825,156.999548 136.972825,156.013017 C136.972825,154.829179 136.742637,153.842662 136.282256,153.053437 C135.821875,152.264212 135.44371,151.705186 135.14775,151.376342 C135.410826,151.014614 135.715002,150.693996 136.060288,150.414478 C136.405574,150.134961 136.742633,149.995204 137.071477,149.995204 C137.400321,149.995204 137.64695,150.12674 137.811372,150.389815 C137.975794,150.65289 138.131993,150.932403 138.279972,151.228363 C138.427952,151.524322 138.600593,151.803835 138.797899,152.06691 C138.995205,152.329985 139.324044,152.461521 139.784426,152.461521 C140.179038,152.461521 140.565424,152.313544 140.943594,152.017584 C141.321765,151.721625 141.510847,151.277692 141.510847,150.685773 C141.510847,150.346208 141.472832,150.050251 141.396803,149.797899 L141.396803,149.797899 Z M133.224024,155.717059 C133.224024,154.960718 133.174698,154.196168 133.076045,153.423384 C132.977391,152.650601 132.771867,151.943598 132.459465,151.302352 C132.147064,150.661107 131.670247,150.143185 131.029002,149.748573 C130.387756,149.35396 129.524554,149.156657 128.439369,149.156657 C126.762266,149.156657 125.496236,149.666357 124.641242,150.685773 C123.786248,151.705189 123.358757,153.382268 123.358757,155.717059 C123.358757,156.70359 123.432746,157.591455 123.580726,158.380681 C123.728706,159.169906 123.999998,159.852247 124.39461,160.427723 C124.789223,161.0032 125.315365,161.438912 125.973053,161.734871 C126.630741,162.030831 127.46928,162.178808 128.488696,162.178808 C130.198684,162.178808 131.415388,161.644445 132.138844,160.575702 C132.862301,159.50696 133.224024,157.887428 133.224024,155.717059 L133.224024,155.717059 Z M125.726421,171.748116 C125.298924,172.011191 124.863213,172.282483 124.419274,172.562001 C123.975334,172.841518 123.580728,173.19502 123.235442,173.622517 C122.890156,174.050014 122.610642,174.551493 122.396894,175.12697 C122.183145,175.702447 122.076273,176.417671 122.076273,177.272665 C122.076273,178.456503 122.281797,179.434799 122.692852,180.207582 C123.103907,180.980365 123.630049,181.605159 124.271295,182.081983 C124.91254,182.558806 125.627765,182.895866 126.41699,183.093172 C127.206215,183.290479 127.978987,183.38913 128.735327,183.38913 C129.919165,183.38913 130.996113,183.208269 131.966202,182.846541 C132.936291,182.484812 133.774831,181.999775 134.481845,181.391414 C135.188859,180.783053 135.731443,180.08427 136.109614,179.295045 C136.487784,178.50582 136.676867,177.683722 136.676867,176.828728 C136.676867,174.987203 136.175387,173.680068 135.172414,172.907285 C134.16944,172.134502 132.796537,171.748116 131.053665,171.748116 L125.726421,171.748116 Z M102.565654,169.577761 L102.565654,170.268326 L106.363782,170.268326 L106.363782,205.339347 L102.565654,205.240692 L102.565654,206.029916 L114.403974,206.029916 L114.403974,205.339347 L110.605846,205.339347 L110.605846,194.191597 C110.605846,192.876221 110.81137,191.659517 111.222425,190.541448 C111.63348,189.423379 112.200727,188.453304 112.924184,187.631195 C113.64764,186.809085 114.486179,186.167849 115.439827,185.707468 C116.393474,185.247086 117.396432,185.016899 118.448733,185.016899 C119.731224,185.016899 120.676636,185.427948 121.284997,186.250057 C121.893358,187.072167 122.197534,188.124452 122.197534,189.406943 L122.197534,205.339347 L118.399406,205.339347 L118.399406,206.029916 L130.237726,206.029916 L130.237726,205.339347 L126.439598,205.339347 L126.439598,190.936059 C126.439598,188.634152 125.757258,186.957073 124.392556,185.904773 C123.027854,184.852473 121.260344,184.326331 119.089975,184.326331 C117.741715,184.326331 116.582558,184.531855 115.612469,184.94291 C114.642379,185.353965 113.820282,185.847223 113.146152,186.4227 C112.472022,186.998176 111.937659,187.606528 111.543046,188.247774 C111.148434,188.889019 110.868921,189.423383 110.704499,189.85088 L110.605846,189.85088 L110.605846,170.268326 L116.553779,170.268326 L116.553779,169.577758 L112.755652,169.577758 L112.755652,149.107331 L104.71546,149.107331 L104.71546,149.797899 L108.513587,149.797899 L108.513587,169.577758 L102.565654,169.577761 Z M110.334552,135 L112.897623,136.47979 L112.897623,139.43937 L110.334552,140.91916 L107.771481,139.43937 L107.771481,136.47979 L110.334552,135 Z M86.3681206,163.36264 L86.9107102,163.36264 C87.1409009,164.151865 87.4368559,164.9493 87.7985842,165.754967 C88.1603124,166.560635 88.6453498,167.300522 89.2537109,167.974652 C89.862072,168.648782 90.6101806,169.199587 91.498059,169.627084 C92.3859373,170.054581 93.4546638,170.268326 94.7042704,170.268326 C95.7565708,170.268326 96.6937617,169.947708 97.5158713,169.306463 C98.3379809,168.665217 98.7490296,167.621154 98.7490296,166.174241 C98.7490296,164.924634 98.4284116,164.04499 97.7871661,163.535282 C97.1459206,163.025574 96.3978121,162.622747 95.5428181,162.326787 L91.6953643,160.994976 C91.2020985,160.830554 90.6677353,160.62503 90.0922585,160.378397 C89.5167818,160.131764 88.9824186,159.786483 88.4891528,159.342544 C87.995887,158.898605 87.5930593,158.331358 87.2806577,157.640786 C86.968256,156.950214 86.8120575,156.062349 86.8120575,154.977164 C86.8120575,154.056401 86.992919,153.20142 87.3546472,152.412195 C87.7163754,151.622969 88.2096338,150.932408 88.8344371,150.340489 C89.4592404,149.74857 90.2073489,149.288195 91.0787851,148.959352 C91.9502213,148.630508 92.8956332,148.466088 93.9150492,148.466088 C94.6385056,148.466088 95.2221947,148.523635 95.6661339,148.63873 C96.1100731,148.753826 96.4964588,148.868919 96.8253027,148.984015 C97.1541465,149.09911 97.4501015,149.214204 97.7131766,149.329299 C97.9762517,149.444394 98.2886487,149.501941 98.6503769,149.501941 C99.0121051,149.501941 99.2751763,149.370406 99.4395982,149.107331 L99.9821878,149.107331 L99.9821878,154.730532 L99.4395982,154.730532 C99.2094075,154.007076 98.9463364,153.308293 98.6503769,152.634163 C98.3544174,151.960033 98.0009156,151.359902 97.5898608,150.833752 C97.178806,150.307602 96.6691057,149.896553 96.0607445,149.600594 C95.4523834,149.304634 94.7371588,149.156657 93.9150492,149.156657 C92.3365987,149.156657 91.1116737,149.510159 90.2402375,150.217173 C89.3688013,150.924187 88.9330898,151.869599 88.9330898,153.053437 C88.9330898,154.105737 89.3030335,154.903172 90.0429322,155.445764 C90.7828309,155.988356 91.8762203,156.489836 93.3231332,156.950217 L96.9239553,158.134049 C98.4695214,158.660199 99.7355512,159.383645 100.722083,160.304408 C101.708614,161.22517 102.201873,162.441874 102.201873,163.954556 C102.201873,164.842434 102.029232,165.713858 101.683946,166.568852 C101.33866,167.423846 100.82896,168.171954 100.15483,168.8132 C99.4807001,169.454445 98.6586028,169.972366 97.6885134,170.366979 C96.7184241,170.761592 95.6085928,170.958895 94.3589861,170.958895 C93.6355297,170.958895 92.9696309,170.884906 92.3612697,170.736927 C91.7529086,170.588947 91.1938825,170.432748 90.6841745,170.268326 C90.1744665,170.103904 89.7058711,169.947706 89.2783741,169.799726 C88.8508771,169.651746 88.4562704,169.577758 88.0945421,169.577758 C87.7328139,169.577758 87.4697428,169.651746 87.3053209,169.799726 C87.1408989,169.947706 87.0093634,170.103904 86.9107102,170.268326 L86.3681206,170.268326 L86.3681206,163.36264 Z M67.9221285,158.035396 C67.9221285,158.36424 67.9139075,158.7013 67.8974653,159.046586 C67.8810231,159.391872 67.8728021,159.827584 67.8728021,160.353734 C67.8728021,161.438919 67.9385699,162.573413 68.0701075,163.757251 C68.201645,164.941089 68.4893791,166.009815 68.9333182,166.963462 C69.3772574,167.917109 70.0349353,168.706323 70.9063715,169.331126 C71.7778077,169.955929 72.9369648,170.268326 74.3838778,170.268326 C75.8307907,170.268326 77.0228318,170.054581 77.9600367,169.627084 C78.8972417,169.199587 79.6371293,168.681666 80.1797216,168.073305 C80.722314,167.464944 81.1251416,166.848371 81.3882167,166.223567 C81.6512918,165.598764 81.8485951,165.089064 81.9801327,164.694451 L82.7200276,164.84243 C82.6213745,165.204158 82.4322921,165.72208 82.1527748,166.396209 C81.8732576,167.070339 81.429325,167.744459 80.8209639,168.418589 C80.2126028,169.092719 79.3905055,169.684629 78.3546474,170.194337 C77.3187893,170.704045 75.9787707,170.958895 74.3345514,170.958895 C72.6903322,170.958895 71.1694522,170.695824 69.7718659,170.169674 C68.3742795,169.643524 67.1657965,168.887194 66.1463806,167.900663 C65.1269646,166.914131 64.3377512,165.738532 63.7787167,164.37383 C63.2196822,163.009128 62.9401691,161.488248 62.9401691,159.811144 C62.9401691,158.364231 63.2279031,156.958445 63.8033799,155.593743 C64.3788566,154.229041 65.16807,153.020558 66.1710437,151.968258 C67.1740175,150.915957 68.3496166,150.069197 69.6978764,149.427952 C71.0461361,148.786706 72.4930274,148.466088 74.0385935,148.466088 C74.9593562,148.466088 75.945873,148.630508 76.9981733,148.959352 C78.0504736,149.288195 79.0287694,149.822559 79.93309,150.562457 C80.8374106,151.302356 81.5937401,152.280652 82.2021012,153.497374 C82.8104623,154.714096 83.1146383,156.226755 83.1146383,158.035396 L67.9221285,158.035396 Z M78.0833526,157.344828 C78.1491213,156.884446 78.1820052,156.456956 78.1820052,156.062343 L78.1820052,154.829185 C78.1820052,153.711116 78.0751326,152.790367 77.8613841,152.06691 C77.6476356,151.343454 77.3516806,150.767986 76.9735101,150.340489 C76.5953397,149.912992 76.1349652,149.608816 75.5923729,149.427952 C75.0497805,149.247088 74.4660915,149.156657 73.8412881,149.156657 C72.7232191,149.156657 71.8024701,149.378623 71.0790136,149.822562 C70.3555572,150.266502 69.7800891,150.866633 69.3525921,151.622973 C68.9250951,152.379314 68.6044771,153.250737 68.3907286,154.237269 C68.1769801,155.2238 68.0372236,156.259643 67.9714548,157.344828 L78.0833526,157.344828 Z M35.4078558,169.577758 C35.9668903,169.643527 36.6163472,169.692852 37.3562458,169.725737 C38.0961445,169.758621 38.9100208,169.775063 39.7978992,169.775063 C40.9159683,169.775063 42.0257996,169.717516 43.1274265,169.602421 C44.2290534,169.487326 45.2813379,169.240696 46.2843116,168.862526 C47.2872854,168.484356 48.2244763,167.941771 49.0959125,167.234757 C49.9673487,166.527743 50.7483411,165.598773 51.4389132,164.447819 C52.4912135,162.672063 53.2228801,160.855228 53.6339349,158.99726 C54.0449897,157.139292 54.250514,155.108712 54.250514,152.905458 C54.250514,150.307592 54.0038849,147.948172 53.5106191,145.82713 C53.0173533,143.706087 52.203477,141.897473 51.0689657,140.401233 C49.9344544,138.904994 48.4300164,137.745837 46.5556065,136.923727 C44.6811965,136.101617 42.3628822,135.690569 39.6005939,135.690569 C38.7784842,135.690569 38.0303757,135.707011 37.3562458,135.739895 C36.6821159,135.772779 36.0326591,135.805663 35.4078558,135.838548 L35.4078558,169.577758 Z M25,220.981713 L26.1029368,220.981713 L28.6679059,228.458599 L31.1302764,220.956064 L31.9638914,220.956064 L34.4262618,228.458599 L36.991231,220.981713 L38.0556932,220.981713 L34.8494817,230.02323 L33.990217,230.02323 L31.5278466,222.738717 L29.0526513,230.02323 L28.2062115,230.02323 L25,220.981713 Z M42.4699065,229.741083 C41.9098854,229.493135 41.4289585,229.157555 41.0271113,228.734333 C40.6252642,228.311111 40.3153335,227.819497 40.09731,227.259475 C39.8792865,226.699454 39.7702764,226.111655 39.7702764,225.496059 C39.7702764,224.854814 39.881424,224.264877 40.1037224,223.700581 C40.3260209,223.136285 40.638089,222.642533 41.0399362,222.219311 C41.4417834,221.796089 41.9248477,221.458371 42.4891438,221.206148 C43.0534398,220.953925 43.6775761,220.827815 44.3615713,220.827815 C45.0455665,220.827815 45.6675653,220.951787 46.2275864,221.199736 C46.7876074,221.447684 47.2685344,221.783264 47.6703815,222.206486 C48.0722287,222.629708 48.3821594,223.121322 48.6001829,223.681343 C48.8182063,224.241365 48.9272164,224.829164 48.9272164,225.44476 C48.9272164,226.086005 48.8160689,226.675942 48.5937704,227.240238 C48.371472,227.804534 48.0594039,228.298286 47.6575567,228.721508 C47.2557095,229.14473 46.7726451,229.482448 46.2083491,229.734671 C45.6440531,229.986894 45.0199168,230.113004 44.3359216,230.113004 C43.6519264,230.113004 43.0299276,229.989031 42.4699065,229.741083 Z M45.7787168,228.888231 C46.2104887,228.695857 46.5802681,228.432951 46.8880659,228.099503 C47.1958638,227.766055 47.437396,227.377039 47.6126697,226.932442 C47.7879435,226.487845 47.8755791,226.009056 47.8755791,225.496059 L47.8755791,225.470409 C47.8755791,224.957413 47.7879435,224.476486 47.6126697,224.027614 C47.437396,223.578742 47.1915889,223.187589 46.8752411,222.854141 C46.5588933,222.520693 46.184839,222.255649 45.7530671,222.059 C45.3212951,221.862352 44.848918,221.764029 44.3359216,221.764029 C43.8229252,221.764029 43.3505481,221.860214 42.9187761,222.052588 C42.4870041,222.244962 42.1172248,222.507868 41.8094269,222.841316 C41.5016291,223.174764 41.2600969,223.56378 41.0848231,224.008377 C40.9095494,224.452974 40.8219138,224.931763 40.8219138,225.44476 L40.8219138,225.470409 C40.8219138,225.983406 40.9095494,226.464333 41.0848231,226.913205 C41.2600969,227.362076 41.505904,227.75323 41.8222518,228.086678 C42.1385996,228.420126 42.5126538,228.68517 42.9444258,228.881818 C43.3761978,229.078467 43.8485749,229.17679 44.3615713,229.17679 C44.8745677,229.17679 45.3469448,229.080605 45.7787168,228.888231 Z M51.8088607,220.981713 L55.6691393,220.981713 C56.2248854,220.981713 56.718637,221.060799 57.150409,221.218973 C57.582181,221.377147 57.9391356,221.597305 58.2212837,221.879453 C58.4435821,222.101751 58.6145783,222.36252 58.7342775,222.661768 C58.8539767,222.961016 58.9138253,223.290184 58.9138253,223.649281 C58.9138253,224.051128 58.8539767,224.386709 58.7342775,224.681681 C58.6145783,224.976654 58.4457195,225.233149 58.2276961,225.451172 C58.0096726,225.669196 57.7510408,225.848742 57.4517929,225.989816 C57.152545,226.13089 56.8276521,226.23135 56.4771046,226.2912 L59.2344465,229.959106 L57.9904364,229.959106 L55.3869927,226.470747 L52.8220235,226.470747 L52.8220235,229.959106 L51.8088607,229.959106 L51.8088607,220.981713 Z M55.5793654,225.560183 C55.912813,225.560183 56.2206063,225.517434 56.5027543,225.431935 C56.7849023,225.346436 57.028572,225.224601 57.2337705,225.066427 C57.4389691,224.908253 57.599278,224.715882 57.7147022,224.489309 C57.8301264,224.262735 57.8878377,224.004104 57.8878377,223.713406 L57.8878377,223.687756 C57.8878377,223.13201 57.6869171,222.698107 57.2850699,222.386034 C56.8832227,222.073961 56.3189351,221.917927 55.5921902,221.917927 L52.8220235,221.917927 L52.8220235,225.560183 L55.5793654,225.560183 Z M61.8211193,220.981713 L64.9375568,220.981713 C65.6386519,220.981713 66.2820252,221.094998 66.8676961,221.321572 C67.453367,221.548145 67.9578059,221.862351 68.381028,222.264198 C68.80425,222.666045 69.1312803,223.138422 69.3621287,223.681343 C69.5929771,224.224265 69.7083995,224.812064 69.7083995,225.44476 C69.7083995,226.103105 69.5929771,226.693042 69.3621287,227.240238 C69.1312803,227.787434 68.80425,228.261949 68.381028,228.663796 C67.9578059,229.065643 67.453367,229.381986 66.8676961,229.612835 C66.2820252,229.843683 65.6386519,229.959106 64.9375568,229.959106 L61.8211193,229.959106 L61.8211193,220.981713 Z M62.8342821,221.917927 L62.8342821,229.022892 L64.9375568,229.022892 C65.5018529,229.022892 66.0148416,228.933119 66.4765383,228.75357 C66.9382351,228.574021 67.329389,228.326077 67.6500117,228.009729 C67.9706345,227.693381 68.218579,227.319327 68.3938528,226.887555 C68.5691266,226.455783 68.6567622,225.991956 68.6567622,225.496059 L68.6567622,225.470409 C68.6567622,224.974513 68.5691266,224.510686 68.3938528,224.078914 C68.218579,223.647142 67.9706345,223.27095 67.6500117,222.950327 C67.329389,222.629704 66.9382351,222.377485 66.4765383,222.193661 C66.0148416,222.009838 65.5018529,221.917927 64.9375568,221.917927 L62.8342821,221.917927 Z M74.898516,229.753908 C74.3513199,229.51451 73.8768053,229.187479 73.4749581,228.772807 C73.0731109,228.358135 72.7589054,227.868658 72.5323319,227.304362 C72.3057585,226.740066 72.1924735,226.137305 72.1924735,225.496059 C72.1924735,224.837714 72.3057585,224.239227 72.5323319,223.674931 C72.7589054,223.110635 73.0731109,222.616883 73.4749581,222.193661 C73.8768053,221.770439 74.3555948,221.436997 74.9113409,221.193323 C75.467087,220.94965 76.0741236,220.827815 76.732469,220.827815 C77.1428661,220.827815 77.5126455,220.862014 77.8418182,220.930414 C78.1709909,220.998814 78.4766466,221.094999 78.7587947,221.218973 C79.0409427,221.342947 79.3017119,221.492569 79.5411103,221.667843 C79.7805086,221.843116 80.0113535,222.037625 80.2336519,222.251373 L79.5411103,222.995214 C79.156363,222.636117 78.7438345,222.341148 78.3035126,222.1103 C77.8631907,221.879451 77.3352398,221.764029 76.7196441,221.764029 C76.2237476,221.764029 75.7641952,221.858077 75.3409732,222.046176 C74.9177512,222.234274 74.5501093,222.495044 74.2380365,222.828491 C73.9259636,223.161939 73.682294,223.553093 73.5070202,224.001965 C73.3317465,224.450836 73.2441109,224.931763 73.2441109,225.44476 C73.2441109,225.991956 73.3317465,226.477158 73.5070202,226.926029 C73.682294,227.374901 73.9259636,227.766055 74.2380365,228.099503 C74.5501093,228.432951 74.9177512,228.695857 75.3409732,228.888231 C75.7641952,229.080605 76.2237476,229.17679 76.7196441,229.17679 C77.3352398,229.17679 77.8653282,229.063505 78.309925,228.836932 C78.7545219,228.610358 79.1905623,228.291878 79.6180593,227.88148 L80.2849513,228.535548 C80.0541029,228.774946 79.8125708,228.990829 79.5603475,229.183202 C79.3081243,229.375576 79.0366678,229.54016 78.7459698,229.676959 C78.4552718,229.813758 78.1432037,229.920631 77.8097561,229.99758 C77.4763084,230.07453 77.1043916,230.113004 76.6939945,230.113004 C76.044199,230.113004 75.4457122,229.993306 74.898516,229.753908 Z M86.1163101,220.917589 L87.0653487,220.917589 L91.1564746,229.959106 L90.0663627,229.959106 L89.0147253,227.586509 L84.128459,227.586509 L83.0639968,229.959106 L82.0251843,229.959106 L86.1163101,220.917589 Z M88.6171551,226.66312 L86.5780046,222.097475 L84.5260292,226.66312 L88.6171551,226.66312 Z M93.6661983,220.981713 L94.692186,220.981713 L97.9625217,225.880805 L101.232857,220.981713 L102.258845,220.981713 L102.258845,229.959106 L101.245682,229.959106 L101.245682,222.687418 L97.9753465,227.496735 L97.9240471,227.496735 L94.6537114,222.700243 L94.6537114,229.959106 L93.6661983,229.959106 L93.6661983,220.981713 Z M105.53806,220.981713 L108.898169,220.981713 C109.402616,220.981713 109.862168,221.047974 110.27684,221.180498 C110.691512,221.313023 111.046329,221.501118 111.341302,221.744792 C111.636275,221.988465 111.862845,222.285571 112.021019,222.636119 C112.179193,222.986666 112.258279,223.384232 112.258279,223.828829 C112.258279,224.341825 112.164231,224.767179 111.976132,225.130551 C111.788034,225.493923 111.533677,225.799579 111.213054,226.047528 C110.892431,226.295476 110.518377,226.481434 110.09088,226.605408 C109.663383,226.729382 109.210243,226.791369 108.731446,226.791369 L106.551222,226.791369 L106.551222,229.959106 L105.53806,229.959106 L105.53806,220.981713 Z M108.769921,225.86798 C109.137568,225.86798 109.473148,225.820956 109.776671,225.726906 C110.080194,225.632857 110.340963,225.498198 110.558987,225.322924 C110.77701,225.14765 110.943732,224.940317 111.059156,224.700919 C111.17458,224.46152 111.232291,224.192201 111.232291,223.892953 L111.232291,223.867304 C111.232291,223.226058 111.012133,222.740856 110.571812,222.411684 C110.13149,222.082511 109.547965,221.917927 108.82122,221.917927 L106.551222,221.917927 L106.551222,225.86798 L108.769921,225.86798 Z M121.804897,221.917927 L118.791058,221.917927 L118.791058,220.981713 L125.844723,220.981713 L125.844723,221.917927 L122.830885,221.917927 L122.830885,229.959106 L121.804897,229.959106 L121.804897,221.917927 Z M130.169163,229.741083 C129.609142,229.493135 129.128215,229.157555 128.726368,228.734333 C128.32452,228.311111 128.01459,227.819497 127.796566,227.259475 C127.578543,226.699454 127.469533,226.111655 127.469533,225.496059 C127.469533,224.854814 127.58068,224.264877 127.802979,223.700581 C128.025277,223.136285 128.337345,222.642533 128.739192,222.219311 C129.14104,221.796089 129.624104,221.458371 130.1884,221.206148 C130.752696,220.953925 131.376832,220.827815 132.060827,220.827815 C132.744823,220.827815 133.366822,220.951787 133.926843,221.199736 C134.486864,221.447684 134.967791,221.783264 135.369638,222.206486 C135.771485,222.629708 136.081416,223.121322 136.299439,223.681343 C136.517463,224.241365 136.626473,224.829164 136.626473,225.44476 C136.626473,226.086005 136.515325,226.675942 136.293027,227.240238 C136.070728,227.804534 135.75866,228.298286 135.356813,228.721508 C134.954966,229.14473 134.471901,229.482448 133.907605,229.734671 C133.343309,229.986894 132.719173,230.113004 132.035178,230.113004 C131.351183,230.113004 130.729184,229.989031 130.169163,229.741083 Z M133.477973,228.888231 C133.909745,228.695857 134.279524,228.432951 134.587322,228.099503 C134.89512,227.766055 135.136652,227.377039 135.311926,226.932442 C135.4872,226.487845 135.574835,226.009056 135.574835,225.496059 L135.574835,225.470409 C135.574835,224.957413 135.4872,224.476486 135.311926,224.027614 C135.136652,223.578742 134.890845,223.187589 134.574497,222.854141 C134.25815,222.520693 133.884095,222.255649 133.452323,222.059 C133.020551,221.862352 132.548174,221.764029 132.035178,221.764029 C131.522181,221.764029 131.049804,221.860214 130.618032,222.052588 C130.18626,222.244962 129.816481,222.507868 129.508683,222.841316 C129.200885,223.174764 128.959353,223.56378 128.784079,224.008377 C128.608806,224.452974 128.52117,224.931763 128.52117,225.44476 L128.52117,225.470409 C128.52117,225.983406 128.608806,226.464333 128.784079,226.913205 C128.959353,227.362076 129.20516,227.75323 129.521508,228.086678 C129.837856,228.420126 130.21191,228.68517 130.643682,228.881818 C131.075454,229.078467 131.547831,229.17679 132.060827,229.17679 C132.573824,229.17679 133.046201,229.080605 133.477973,228.888231 Z M139.508117,220.981713 L140.52128,220.981713 L140.52128,226.342499 L145.676868,220.981713 L146.985002,220.981713 L143.137548,224.906116 L147.151725,229.959106 L145.882065,229.959106 L142.432182,225.611483 L140.52128,227.548035 L140.52128,229.959106 L139.508117,229.959106 L139.508117,220.981713 Z M152.789725,226.406623 L149.057694,220.981713 L150.28888,220.981713 L153.315543,225.470409 L156.367857,220.981713 L157.547743,220.981713 L153.815712,226.393798 L153.815712,229.959106 L152.789725,229.959106 L152.789725,226.406623 Z M161.436137,229.741083 C160.876116,229.493135 160.395189,229.157555 159.993342,228.734333 C159.591495,228.311111 159.281564,227.819497 159.063541,227.259475 C158.845517,226.699454 158.736507,226.111655 158.736507,225.496059 C158.736507,224.854814 158.847655,224.264877 159.069953,223.700581 C159.292252,223.136285 159.60432,222.642533 160.006167,222.219311 C160.408014,221.796089 160.891078,221.458371 161.455374,221.206148 C162.01967,220.953925 162.643807,220.827815 163.327802,220.827815 C164.011797,220.827815 164.633796,220.951787 165.193817,221.199736 C165.753838,221.447684 166.234765,221.783264 166.636612,222.206486 C167.038459,222.629708 167.34839,223.121322 167.566414,223.681343 C167.784437,224.241365 167.893447,224.829164 167.893447,225.44476 C167.893447,226.086005 167.7823,226.675942 167.560001,227.240238 C167.337703,227.804534 167.025635,228.298286 166.623787,228.721508 C166.22194,229.14473 165.738876,229.482448 165.17458,229.734671 C164.610284,229.986894 163.986147,230.113004 163.302152,230.113004 C162.618157,230.113004 161.996158,229.989031 161.436137,229.741083 Z M164.744947,228.888231 C165.176719,228.695857 165.546499,228.432951 165.854297,228.099503 C166.162094,227.766055 166.403627,227.377039 166.5789,226.932442 C166.754174,226.487845 166.84181,226.009056 166.84181,225.496059 L166.84181,225.470409 C166.84181,224.957413 166.754174,224.476486 166.5789,224.027614 C166.403627,223.578742 166.15782,223.187589 165.841472,222.854141 C165.525124,222.520693 165.15107,222.255649 164.719298,222.059 C164.287526,221.862352 163.815149,221.764029 163.302152,221.764029 C162.789156,221.764029 162.316779,221.860214 161.885007,222.052588 C161.453235,222.244962 161.083455,222.507868 160.775658,222.841316 C160.46786,223.174764 160.226328,223.56378 160.051054,224.008377 C159.87578,224.452974 159.788144,224.931763 159.788144,225.44476 L159.788144,225.470409 C159.788144,225.983406 159.87578,226.464333 160.051054,226.913205 C160.226328,227.362076 160.472135,227.75323 160.788482,228.086678 C161.10483,228.420126 161.478884,228.68517 161.910656,228.881818 C162.342428,229.078467 162.814806,229.17679 163.327802,229.17679 C163.840798,229.17679 164.313175,229.080605 164.744947,228.888231 Z M173.721846,229.17679 L176.979357,226.304024 C177.321355,225.996227 177.612048,225.718358 177.851447,225.470409 C178.090845,225.222461 178.283216,224.989479 178.428565,224.771455 C178.573914,224.553432 178.680786,224.339687 178.749186,224.130213 C178.817585,223.92074 178.851785,223.704857 178.851785,223.482558 C178.851785,223.21751 178.802623,222.980253 178.704299,222.770779 C178.605975,222.561306 178.47559,222.38176 178.313141,222.232136 C178.150692,222.082512 177.958322,221.967089 177.736023,221.885865 C177.513725,221.804641 177.28288,221.764029 177.043481,221.764029 C176.530485,221.764029 176.09017,221.894414 175.722522,222.155187 C175.354875,222.41596 174.991508,222.798564 174.63241,223.30301 L173.888569,222.764367 C174.093768,222.465119 174.303238,222.1958 174.516987,221.956402 C174.730735,221.717003 174.963718,221.516083 175.215941,221.353634 C175.468164,221.191185 175.750308,221.067213 176.062381,220.981713 C176.374454,220.896214 176.727133,220.853465 177.12043,220.853465 C177.522278,220.853465 177.894194,220.917589 178.236192,221.045838 C178.57819,221.174087 178.873158,221.351495 179.121106,221.578069 C179.369055,221.804642 179.561425,222.071824 179.698225,222.379622 C179.835024,222.687419 179.903422,223.025137 179.903422,223.392784 C179.903422,223.743332 179.858536,224.044713 179.768761,224.322586 C179.678987,224.600459 179.54219,224.874053 179.358366,225.143376 C179.174542,225.412699 178.939423,225.68843 178.653,225.970578 C178.366577,226.252726 178.026722,226.564795 177.633424,226.906792 L175.235178,229.035717 L179.993196,229.035717 L179.993196,229.959106 L173.721846,229.959106 L173.721846,229.17679 Z M184.535658,229.747496 C184.069686,229.503822 183.67212,229.17038 183.342947,228.747158 C183.013774,228.323936 182.761555,227.834459 182.586281,227.278713 C182.411007,226.722967 182.323372,226.128755 182.323372,225.496059 C182.323372,224.846264 182.413145,224.252052 182.592694,223.687756 C182.772242,223.12346 183.028737,222.629708 183.362184,222.206486 C183.695632,221.783264 184.095336,221.447684 184.561307,221.199736 C185.027279,220.951787 185.550955,220.827815 186.132351,220.827815 C186.705197,220.827815 187.224598,220.94965 187.69057,221.193323 C188.156542,221.436997 188.554108,221.770439 188.883281,222.193661 C189.212453,222.616883 189.464673,223.108498 189.639946,223.668519 C189.81522,224.22854 189.902856,224.820614 189.902856,225.44476 C189.902856,226.103105 189.813083,226.699454 189.633534,227.259475 C189.453985,227.819497 189.199628,228.311111 188.870456,228.734333 C188.541283,229.157555 188.141579,229.493135 187.671333,229.741083 C187.201086,229.989031 186.679547,230.113004 186.106701,230.113004 C185.525305,230.113004 185.001629,229.991169 184.535658,229.747496 Z M187.26735,228.888231 C187.605073,228.687307 187.891491,228.417988 188.126615,228.080266 C188.361738,227.742543 188.541284,227.349252 188.665258,226.90038 C188.789232,226.451508 188.851218,225.983406 188.851218,225.496059 L188.851218,225.470409 C188.851218,224.983063 188.787095,224.514961 188.658846,224.066089 C188.530597,223.617217 188.346776,223.221788 188.107377,222.879791 C187.867979,222.537793 187.579423,222.264199 187.2417,222.059 C186.903978,221.853802 186.525648,221.751204 186.106701,221.751204 C185.687754,221.751204 185.309425,221.851664 184.971703,222.052588 C184.63398,222.253512 184.347561,222.522831 184.112438,222.860553 C183.877314,223.198276 183.695631,223.58943 183.567382,224.034027 C183.439133,224.478624 183.375009,224.948863 183.375009,225.44476 L183.375009,225.470409 C183.375009,225.957756 183.439133,226.425858 183.567382,226.87473 C183.695631,227.323602 183.879452,227.719031 184.11885,228.061028 C184.358249,228.403026 184.648942,228.67662 184.99094,228.881818 C185.332937,229.087017 185.713404,229.189615 186.132351,229.189615 C186.551298,229.189615 186.929627,229.089154 187.26735,228.888231 Z M193.669414,221.969227 L191.976535,222.495045 L191.732863,221.674255 L193.925911,220.917589 L194.669752,220.917589 L194.669752,229.959106 L193.669414,229.959106 L193.669414,221.969227 Z M198.814644,229.709021 C198.271723,229.439698 197.795071,229.099843 197.384674,228.689446 L198.051566,227.95843 C198.444863,228.343177 198.853116,228.644558 199.276338,228.862581 C199.69956,229.080605 200.142013,229.189615 200.60371,229.189615 C200.920058,229.189615 201.212889,229.138316 201.482212,229.035717 C201.751535,228.933117 201.980242,228.794183 202.168341,228.618909 C202.35644,228.443635 202.503924,228.234165 202.610798,227.990492 C202.717673,227.746818 202.771109,227.483912 202.771109,227.201764 C202.771109,226.893966 202.715535,226.637472 202.604386,226.406623 C202.493237,226.175775 202.33934,225.976992 202.142691,225.810268 C201.946043,225.643544 201.710923,225.515297 201.437325,225.425522 C201.163727,225.335748 200.864483,225.290862 200.539586,225.290862 C200.154838,225.290862 199.810708,225.340023 199.507186,225.438347 C199.203663,225.536672 198.919382,225.658506 198.654333,225.803855 L197.974617,225.354986 L198.231113,220.981713 L203.399526,220.981713 L203.399526,221.917927 L199.116028,221.917927 L198.923655,224.790693 C199.188703,224.670993 199.455885,224.574808 199.725208,224.502134 C199.994531,224.429459 200.317287,224.393122 200.693484,224.393122 C201.129531,224.393122 201.535647,224.455109 201.911844,224.579083 C202.288042,224.703057 202.617209,224.882603 202.899357,225.117726 C203.181505,225.35285 203.401663,225.641406 203.559837,225.983403 C203.718011,226.325401 203.797097,226.710142 203.797097,227.137639 C203.797097,227.599336 203.718011,227.99904 203.559837,228.362412 C203.401663,228.725785 203.181505,229.037853 202.899357,229.298626 C202.617209,229.559399 202.279492,229.76032 201.886195,229.901394 C201.492897,230.042468 201.061132,230.113004 200.590885,230.113004 C199.94964,230.113004 199.357565,229.978344 198.814644,229.709021 Z" id="logo"></path>
        </g>
    </g>
</svg>
