<?xml version="1.0" encoding="UTF-8" standalone="no"?>
<svg width="340px" height="180px" viewBox="0 0 340 180" version="1.1" xmlns="http://www.w3.org/2000/svg" xmlns:xlink="http://www.w3.org/1999/xlink">
    <!-- Generator: Sketch 40.3 (33839) - http://www.bohemiancoding.com/sketch -->
    <title>Combined Shape</title>
    <desc>Created with Sketch.</desc>
    <defs></defs>
    <g id="1" stroke="none" stroke-width="1" fill="none" fill-rule="evenodd">
        <g id="index" transform="translate(-190.000000, -190.000000)" fill="#AA7A40">
            <path d="M523.192067,369.352267 C522.271795,369.352267 521.44277,369.201535 520.704967,368.900067 C519.967163,368.598598 519.336469,368.186069 518.812867,367.662467 C518.479665,367.329265 518.182168,366.964335 517.920367,366.567667 C517.658565,366.170998 517.440401,365.718803 517.265867,365.211067 C517.091332,364.703331 516.956467,364.124203 516.861267,363.473667 C516.766066,362.82313 516.718467,362.069471 516.718467,361.212667 L516.718467,361.165067 C516.718467,359.895727 516.873165,358.709706 517.182567,357.606967 C517.491968,356.504228 517.944164,355.548271 518.539167,354.739067 C519.13417,353.929863 519.860062,353.291236 520.716867,352.823167 C521.573671,352.355098 522.549461,352.121067 523.644267,352.121067 C524.643872,352.121067 525.532396,352.287665 526.309867,352.620867 C527.087337,352.954068 527.840996,353.42213 528.570867,354.025067 L527.476067,355.476867 C526.857264,354.953264 526.23847,354.548668 525.619667,354.263067 C525.000864,353.977465 524.31067,353.834667 523.549067,353.834667 C522.739863,353.834667 522.029836,354.029031 521.418967,354.417767 C520.808097,354.806502 520.296402,355.330097 519.883867,355.988567 C519.471331,356.647037 519.161934,357.408629 518.955667,358.273367 C518.749399,359.138104 518.646267,360.038529 518.646267,360.974667 L518.646267,361.212667 C519.201603,360.403463 519.860063,359.772769 520.621667,359.320567 C521.38327,358.868364 522.311461,358.642267 523.406267,358.642267 C524.183737,358.642267 524.92153,358.761265 525.619667,358.999267 C526.317803,359.237268 526.928664,359.578398 527.452267,360.022667 C527.975869,360.466936 528.392365,361.006397 528.701767,361.641067 C529.011168,362.275737 529.165867,362.981796 529.165867,363.759267 L529.165867,363.806867 C529.165867,364.616071 529.011168,365.35783 528.701767,366.032167 C528.392365,366.706503 527.971903,367.289598 527.440367,367.781467 C526.908831,368.273336 526.278137,368.658099 525.548267,368.935767 C524.818396,369.213435 524.033004,369.352267 523.192067,369.352267 L523.192067,369.352267 Z M523.215867,367.686267 C523.83467,367.686267 524.389998,367.587101 524.881867,367.388767 C525.373736,367.190432 525.794198,366.920702 526.143267,366.579567 C526.492335,366.238432 526.762066,365.833836 526.952467,365.365767 C527.142868,364.897698 527.238067,364.401869 527.238067,363.878267 L527.238067,363.830667 C527.238067,363.322931 527.138901,362.850902 526.940567,362.414567 C526.742232,361.978231 526.464568,361.601402 526.107567,361.284067 C525.750565,360.966732 525.322169,360.716834 524.822367,360.534367 C524.322564,360.351899 523.771203,360.260667 523.168267,360.260667 C522.549464,360.260667 521.982236,360.363799 521.466567,360.570067 C520.950897,360.776334 520.510602,361.050032 520.145667,361.391167 C519.780732,361.732302 519.499101,362.121031 519.300767,362.557367 C519.102432,362.993702 519.003267,363.441931 519.003267,363.902067 L519.003267,363.949667 C519.003267,364.473269 519.106399,364.965131 519.312667,365.425267 C519.518934,365.885402 519.808498,366.282065 520.181367,366.615267 C520.554235,366.948468 520.998497,367.210266 521.514167,367.400667 C522.029836,367.591068 522.597064,367.686267 523.215867,367.686267 Z M500.091802,311.123545 L501.116693,311.123545 C501.551498,312.614304 502.110524,314.120569 502.793788,315.642385 C503.477053,317.164201 504.393235,318.561767 505.542361,319.835123 C506.691488,321.10848 508.104582,322.148889 509.781685,322.956384 C511.458789,323.763878 513.477494,324.167619 515.837862,324.167619 C517.825541,324.167619 519.59579,323.562008 521.148664,322.350766 C522.701538,321.139525 523.477963,319.167404 523.477963,316.434347 C523.477963,314.073979 522.872351,312.412429 521.66111,311.449647 C520.449868,310.486865 519.036774,309.725969 517.421786,309.166934 L510.154373,306.651291 C509.222649,306.340716 508.213296,305.952504 507.126284,305.486642 C506.039273,305.02078 505.02992,304.368582 504.098196,303.530031 C503.166472,302.691479 502.405575,301.620012 501.815483,300.315598 C501.225391,299.011184 500.930349,297.334106 500.930349,295.284312 C500.930349,293.545094 501.271976,291.930129 501.955241,290.43937 C502.638505,288.948612 503.570215,287.644217 504.750399,286.526148 C505.930583,285.408079 507.343677,284.538483 508.989724,283.917333 C510.63577,283.296184 512.421548,282.985614 514.347111,282.985614 C515.71364,282.985614 516.816164,283.094313 517.654716,283.311716 C518.493267,283.529118 519.223107,283.746517 519.844257,283.963919 C520.465406,284.181322 521.024432,284.398721 521.521352,284.616123 C522.018271,284.833525 522.608355,284.942225 523.291619,284.942225 C523.974883,284.942225 524.471796,284.693769 524.78237,284.196849 L525.807262,284.196849 L525.807262,294.818453 L524.78237,294.818453 C524.347566,293.451924 523.850654,292.132001 523.291619,290.858644 C522.732584,289.585288 522.064859,288.451707 521.288422,287.457868 C520.511985,286.464029 519.549218,285.687603 518.400091,285.128569 C517.250965,284.569534 515.899985,284.290021 514.347111,284.290021 C511.365594,284.290021 509.051846,284.957747 507.4058,286.293218 C505.759754,287.62869 504.936743,289.414468 504.936743,291.650606 C504.936743,293.638284 505.635526,295.144549 507.033112,296.169446 C508.430699,297.194343 510.49599,298.141581 513.229048,299.011191 L520.030601,301.247318 C522.950003,302.241157 525.341393,303.607665 527.204841,305.346884 C529.06829,307.086102 530,309.384321 530,312.241609 C530,313.918712 529.673901,315.564734 529.021694,317.179722 C528.369487,318.794711 527.40672,320.207805 526.133364,321.419046 C524.860007,322.630288 523.307157,323.608584 521.474766,324.353963 C519.642375,325.099343 517.546027,325.472027 515.185659,325.472027 C513.81913,325.472027 512.561321,325.33227 511.412194,325.052753 C510.263068,324.773236 509.20713,324.478194 508.244348,324.167619 C507.281566,323.857044 506.396441,323.562003 505.588947,323.282486 C504.781453,323.002968 504.036085,322.863212 503.35282,322.863212 C502.669556,322.863212 502.172643,323.002968 501.862069,323.282486 C501.551494,323.562003 501.303038,323.857044 501.116693,324.167619 L500.091802,324.167619 L500.091802,311.123545 Z M465.695821,301.060974 C465.695821,301.682123 465.680292,302.318792 465.649235,302.970999 C465.618177,303.623206 465.602649,304.446217 465.602649,305.440056 C465.602649,307.489849 465.726877,309.632783 465.975337,311.868921 C466.223797,314.105059 466.767294,316.123765 467.605846,317.925098 C468.444398,319.726432 469.686678,321.217168 471.332724,322.397352 C472.97877,323.577536 475.16829,324.167619 477.901347,324.167619 C480.634405,324.167619 482.886038,323.763878 484.656314,322.956384 C486.42659,322.148889 487.824156,321.170594 488.849052,320.021467 C489.873949,318.872341 490.634846,317.707703 491.131765,316.527519 C491.628685,315.347335 492.001369,314.384567 492.249829,313.639188 L493.647408,313.918704 C493.461063,314.601968 493.103908,315.580264 492.575931,316.853621 C492.047954,318.126977 491.209414,319.400314 490.060288,320.673671 C488.911161,321.947027 487.358311,323.06508 485.40169,324.027861 C483.445069,324.990643 480.913923,325.472027 477.808175,325.472027 C474.702428,325.472027 471.829655,324.975114 469.189769,323.981275 C466.549884,322.987436 464.267194,321.558814 462.34163,319.695365 C460.416067,317.831917 458.925331,315.611341 457.869376,313.03357 C456.813422,310.4558 456.285453,307.583027 456.285453,304.415164 C456.285453,301.682106 456.828951,299.026732 457.915962,296.448962 C459.002974,293.871191 460.49371,291.588501 462.388216,289.600823 C464.282722,287.613144 466.503298,286.013709 469.050011,284.802467 C471.596724,283.591226 474.329741,282.985614 477.249144,282.985614 C478.988362,282.985614 480.851783,283.296184 482.839461,283.917333 C484.827139,284.538483 486.675031,285.547836 488.383193,286.945422 C490.091354,288.343008 491.519976,290.1909 492.669103,292.489154 C493.818229,294.787407 494.392784,297.644651 494.392784,301.060974 L465.695821,301.060974 Z M484.889244,299.756566 C485.013474,298.886957 485.075588,298.079475 485.075588,297.334095 L485.075588,295.004796 C485.075588,292.892888 484.873718,291.153696 484.46997,289.787167 C484.066223,288.420638 483.507197,287.333643 482.792875,286.526148 C482.078553,285.718654 481.208957,285.144099 480.18406,284.802467 C479.159164,284.460835 478.05664,284.290021 476.876456,284.290021 C474.764548,284.290021 473.025355,284.709291 471.658826,285.547843 C470.292297,286.386395 469.205302,287.519975 468.397808,288.948619 C467.590313,290.377263 466.984702,292.023284 466.580954,293.886733 C466.177207,295.750181 465.913223,297.706773 465.788993,299.756566 L484.889244,299.756566 Z M413.131308,284.196849 L435.678922,284.196849 L435.678922,285.501257 L428.038822,285.501257 L440.058004,314.757251 L452.543047,285.501257 L444.902946,285.501257 L444.902946,284.196849 L459.065084,284.196849 L459.065084,285.501257 L454.033798,285.501257 L436.424298,327.242294 L419.467001,285.501257 L413.131308,285.501257 L413.131308,284.196849 Z M391.779402,322.863212 L398.953642,322.863212 L398.953642,285.501257 L391.779402,285.501257 L391.779402,284.196849 L406.966431,284.196849 L406.966431,322.863212 L414.140672,322.863212 L414.140672,324.167619 L391.779402,324.167619 L391.779402,322.863212 Z M333.795387,313.918704 C333.609043,314.601968 333.251887,315.580264 332.72391,316.853621 C332.195933,318.126977 331.357394,319.400314 330.208267,320.673671 C329.05914,321.947027 327.50629,323.06508 325.549669,324.027861 C323.593048,324.990643 321.061902,325.472027 317.956155,325.472027 C315.595787,325.472027 313.142283,325.099343 310.59557,324.353963 C308.048857,323.608584 305.719581,322.412889 303.607673,320.766843 C301.495765,319.120797 299.772101,316.962334 298.436629,314.291392 C297.101158,311.620449 296.433432,308.328406 296.433432,304.415164 C296.433432,301.371532 297.007987,298.545344 298.157114,295.936516 C299.30624,293.327688 300.859091,291.060526 302.815711,289.134963 C304.772332,287.2094 307.070551,285.703135 309.710436,284.616123 C312.350322,283.529112 315.160981,282.985614 318.142499,282.985614 C319.819602,282.985614 321.543266,283.187484 323.313542,283.591232 C325.083818,283.994979 326.698783,284.616119 328.158484,285.454671 C329.618185,286.293223 330.829409,287.380218 331.79219,288.715689 C332.754972,290.051161 333.236356,291.681654 333.236356,293.607217 C333.236356,294.911631 332.817086,295.983098 331.978534,296.82165 C331.139982,297.660201 329.944288,298.079471 328.391414,298.079471 C327.33546,298.079471 326.326107,297.846543 325.363325,297.380681 C324.400544,296.914819 323.91916,296.122865 323.91916,295.004796 C323.91916,294.135187 324.136559,293.079249 324.571364,291.83695 C325.006168,290.594651 325.223567,289.56977 325.223567,288.762275 C325.223567,287.333631 324.509256,286.231108 323.080612,285.454671 C321.651968,284.678234 320.005947,284.290021 318.142499,284.290021 C316.77597,284.290021 315.362876,284.460835 313.903174,284.802467 C312.443473,285.144099 311.108022,285.998167 309.89678,287.364696 C308.685539,288.731225 307.691714,290.780987 306.915278,293.514045 C306.138841,296.247103 305.750628,299.973944 305.750628,304.69468 C305.750628,307.365623 305.921442,309.881241 306.263074,312.241609 C306.604706,314.601977 307.225846,316.667268 308.126513,318.437544 C309.02718,320.20782 310.26946,321.605385 311.853391,322.630282 C313.437323,323.655179 315.502614,324.167619 318.049327,324.167619 C320.782384,324.167619 323.034017,323.763878 324.804294,322.956384 C326.57457,322.148889 327.972135,321.170594 328.997032,320.021467 C330.021928,318.872341 330.782825,317.707703 331.279745,316.527519 C331.776664,315.347335 332.149348,314.384567 332.397808,313.639188 L333.795387,313.918704 Z M223.064904,256.922869 L198.199132,322.863212 L190,322.863212 L190,324.167619 L210.031971,324.167619 L210.031971,322.863212 L199.689884,322.863212 L209.472939,296.961408 L231.088833,296.961408 L240.871889,322.863212 L230.529802,322.863212 L230.529802,324.167619 L259.001599,324.167619 L282.069423,324.167619 L282.069423,322.863212 L273.963462,322.863212 L273.963462,301.526833 C273.963462,298.918006 274.289561,296.604258 274.941768,294.585523 C275.593975,292.566787 276.401457,290.843123 277.364239,289.414479 C278.32702,287.985835 279.36743,286.89884 280.485499,286.15346 C281.603568,285.408081 282.659507,285.035397 283.653346,285.035397 C285.827369,285.035397 286.914364,286.029221 286.914364,288.0169 C286.914364,288.824394 286.85225,289.445534 286.72802,289.880339 C286.603791,290.315143 286.464034,290.703356 286.308747,291.044988 C286.153459,291.38662 286.013703,291.728248 285.889473,292.06988 C285.765243,292.411512 285.703129,292.861839 285.703129,293.420873 C285.703129,295.160092 287.069637,296.029688 289.802695,296.029688 C291.044994,296.029688 292.131989,295.688061 293.063714,295.004796 C293.995438,294.321532 294.461293,292.955024 294.461293,290.90523 C294.461293,289.973506 294.306008,289.041796 293.995433,288.110072 C293.684858,287.178347 293.187946,286.355337 292.504682,285.641015 C291.821417,284.926693 290.951821,284.33661 289.895867,283.870747 C288.839913,283.404885 287.597633,283.171958 286.168989,283.171958 C284.18131,283.171958 282.488703,283.544642 281.091117,284.290021 C279.693531,285.035401 278.497836,285.951582 277.503997,287.038594 C276.510157,288.125606 275.733732,289.259186 275.174698,290.43937 C274.615663,291.619555 274.211922,292.675493 273.963462,293.607217 L273.777118,293.607217 L273.777118,284.196849 L258.776433,284.196849 L258.776433,285.501257 L265.950674,285.501257 L265.950674,322.863212 L259.001599,322.863212 L250.93446,322.863212 L225.833383,256.788318 C226.748027,256.721788 227.614707,256.633941 228.433433,256.524778 C229.831019,256.338433 231.197527,256.05892 232.532999,255.68623 C233.86847,255.313541 235.281564,254.785571 236.772323,254.102307 C239.443266,252.984238 241.943355,251.50903 244.272665,249.676639 C246.601976,247.844248 248.63621,245.670257 250.375429,243.154602 C252.114647,240.638946 253.481156,237.750645 254.474995,234.48961 C255.468834,231.228575 255.965746,227.548319 255.965746,223.448733 C255.965746,219.908181 255.546476,216.522967 254.707925,213.292989 C253.869373,210.063012 252.564978,207.081539 250.794702,204.348481 C249.024426,201.615424 246.757265,199.208506 243.99315,197.127655 C241.229034,195.046804 237.95252,193.385254 234.163508,192.142955 C232.859094,191.70815 231.632342,191.350995 230.483216,191.071478 C229.334089,190.79196 228.122866,190.574561 226.849509,190.419274 C225.576153,190.263986 224.209644,190.155287 222.749943,190.093172 C221.290242,190.031057 219.628692,190 217.765243,190 C216.895634,190 216.026038,190.015529 215.156429,190.046586 C214.286819,190.077643 213.417223,190.093172 212.547614,190.093172 C211.678004,190.155287 210.808408,190.201872 209.938799,190.23293 C209.06919,190.263987 208.199593,190.279516 207.329984,190.279516 L190,190.279516 L190,191.583923 L200.342087,191.583923 L200.342087,255.313542 L190,255.313542 L190,256.61795 L205.839233,256.61795 C206.770957,256.61795 207.749253,256.633478 208.774149,256.664536 C209.799046,256.695593 210.839456,256.742179 211.89541,256.804294 C212.951364,256.866409 214.007303,256.912994 215.063257,256.944052 C216.119211,256.975109 217.113035,256.990638 218.044759,256.990638 C219.898866,256.990638 221.572236,256.968048 223.064904,256.922869 L223.064904,256.922869 Z M220.280886,268.54396 L210.031971,295.657 L230.529802,295.657 L220.280886,268.54396 Z M409.860627,217.951587 L415.755651,217.951587 L415.755651,255.313542 L408.581411,255.313542 L408.581411,256.61795 L430.94268,256.61795 L430.94268,255.313542 L423.76844,255.313542 L423.76844,234.25668 C423.76844,231.772082 424.156652,229.473863 424.933089,227.361955 C425.709526,225.250047 426.780993,223.417683 428.147522,221.86481 C429.514051,220.311936 431.097958,219.100712 432.899291,218.231103 C434.700625,217.361494 436.595103,216.926696 438.582781,216.926696 C441.005264,216.926696 442.791042,217.703121 443.940168,219.255995 C445.089295,220.808868 445.66385,222.796517 445.66385,225.219 L445.66385,255.313542 L438.489609,255.313542 L438.489609,256.61795 L460.850879,256.61795 L460.850879,255.313542 L453.676638,255.313542 L453.676638,228.107331 C453.676638,223.759284 452.387772,220.591469 449.810002,218.603791 C447.232231,216.616113 443.893603,215.622288 439.794016,215.622288 C437.123074,215.622288 434.855912,216.041558 432.992463,216.88011 C431.129015,217.718662 429.576165,218.728014 428.333866,219.908198 C427.091567,221.088382 426.113271,222.299606 425.398949,223.541905 C424.684627,224.784204 424.141129,225.809085 423.76844,226.616579 L423.582096,226.616579 L423.582096,216.64718 L409.094452,216.64718 C408.917579,216.480004 408.716802,216.340246 408.492121,216.227906 C407.436167,215.699929 406.287058,215.435944 405.044759,215.435944 C403.05708,215.435944 401.39553,215.932857 400.060059,216.926696 C398.724588,217.920535 397.715235,219.00753 397.03197,220.187714 C396.100246,219.25599 394.625038,218.231109 392.606302,217.11304 C390.587567,215.994971 388.180648,215.435944 385.385476,215.435944 C383.584142,215.435944 381.705193,215.746515 379.748572,216.367664 C377.791951,216.988814 376.006173,217.904995 374.391185,219.116237 C372.776196,220.327478 371.440745,221.802686 370.38479,223.541905 C369.328836,225.281123 368.800867,227.237715 368.800867,229.411738 C368.800867,233.635555 370.602174,236.989712 374.204841,239.47431 C373.397346,239.846999 372.481165,240.312854 371.456268,240.871889 C370.431371,241.430923 369.468604,242.160763 368.567937,243.06143 C367.667271,243.962097 366.906374,245.018035 366.285224,246.229277 C365.664075,247.440518 365.353505,248.884669 365.353505,250.561773 C365.353505,253.79175 366.331801,256.07444 368.288421,257.409911 C370.245042,258.745383 373.273101,259.413109 377.372687,259.599452 C376.068273,260.096372 374.763879,260.717512 373.459465,261.462892 C372.155051,262.208271 370.990413,263.093396 369.965517,264.118292 C368.94062,265.143189 368.102081,266.323355 367.449874,267.658827 C366.797667,268.994298 366.471568,270.469506 366.471568,272.084495 C366.471568,273.761598 366.890838,275.283392 367.72939,276.649921 C368.567942,278.01645 369.732579,279.181087 371.223338,280.143869 C372.714097,281.106651 374.468818,281.867548 376.487554,282.426582 C378.50629,282.985617 380.726866,283.26513 383.149349,283.26513 C385.820292,283.26513 388.42908,282.814803 390.975793,281.914136 C393.522506,281.01347 395.774139,279.740132 397.73076,278.094086 C399.687381,276.44804 401.25576,274.506977 402.435944,272.270839 C403.616128,270.034701 404.206211,267.55014 404.206211,264.817082 C404.206211,260.344806 402.917345,257.068291 400.339575,254.987441 C397.761805,252.90659 394.298948,251.86618 389.950902,251.86618 L375.229732,251.86618 C374.422238,251.86618 373.645813,251.804066 372.900433,251.679836 C372.155054,251.555606 371.487328,251.338207 370.897236,251.027632 C370.307144,250.717058 369.825761,250.251202 369.453071,249.630053 C369.080381,249.008903 368.894039,248.232478 368.894039,247.300754 C368.894039,246.306915 369.111438,245.42179 369.546243,244.645353 C369.981048,243.868916 370.524545,243.201191 371.176752,242.642156 C371.828959,242.083122 372.54327,241.617266 373.319707,241.244577 C374.096144,240.871887 374.825984,240.53026 375.509248,240.219685 C376.378857,240.65449 377.621138,241.166931 379.236126,241.757023 C380.851115,242.347115 382.745593,242.642156 384.919616,242.642156 C387.031524,242.642156 389.096815,242.316058 391.115551,241.663851 C393.134287,241.011644 394.904536,240.095462 396.426353,238.915278 C397.948169,237.735094 399.174921,236.368585 400.106645,234.815712 C401.038369,233.262838 401.504224,231.554702 401.504224,229.691254 C401.504224,227.455116 401.069426,225.591695 400.199817,224.100937 C399.330208,222.610178 398.615896,221.554239 398.056862,220.93309 C398.553782,220.249826 399.128336,219.644214 399.780543,219.116237 C400.43275,218.58826 401.069419,218.324275 401.690568,218.324275 C402.311718,218.324275 402.777573,218.572731 403.088148,219.069651 C403.398722,219.56657 403.693764,220.09454 403.973281,220.653574 C404.252799,221.212609 404.578897,221.740578 404.951587,222.237497 C405.324277,222.734417 405.945417,222.982873 406.815026,222.982873 C407.560405,222.982873 408.290245,222.70336 409.004567,222.144325 C409.718889,221.585291 410.076045,220.746752 410.076045,219.628683 C410.076045,218.987283 410.004239,218.428251 409.860627,217.951587 L409.860627,217.951587 Z M394.423156,229.132222 C394.423156,227.703578 394.329985,226.259428 394.14364,224.799726 C393.957295,223.340025 393.569082,222.004574 392.97899,220.793332 C392.388898,219.582091 391.488245,218.603795 390.277003,217.858415 C389.065762,217.113036 387.435269,216.740352 385.385476,216.740352 C382.217613,216.740352 379.826224,217.703119 378.211235,219.628683 C376.596246,221.554246 375.788764,224.722061 375.788764,229.132222 C375.788764,230.995671 375.928521,232.672749 376.208038,234.163508 C376.487555,235.654267 376.999996,236.943133 377.745375,238.030144 C378.490755,239.117156 379.484579,239.940167 380.726878,240.499201 C381.969177,241.058236 383.553084,241.337749 385.478648,241.337749 C388.708625,241.337749 391.006844,240.328396 392.373373,238.30966 C393.739901,236.290924 394.423156,233.231809 394.423156,229.132222 L394.423156,229.132222 Z M380.261018,259.413109 C379.453524,259.910028 378.630513,260.422469 377.791961,260.950446 C376.953409,261.478423 376.208041,262.146149 375.555834,262.953643 C374.903627,263.761137 374.375658,264.708376 373.971911,265.795388 C373.568164,266.882399 373.366293,268.233379 373.366293,269.848368 C373.366293,272.084506 373.754506,273.932398 374.530943,275.392099 C375.307379,276.851801 376.301204,278.031967 377.512445,278.932634 C378.723687,279.8333 380.074667,280.469969 381.565425,280.842659 C383.056184,281.215349 384.515864,281.401691 385.944507,281.401691 C388.180646,281.401691 390.21488,281.060063 392.047271,280.376799 C393.879662,279.693535 395.463569,278.777353 396.799041,277.628226 C398.134512,276.4791 399.159393,275.159177 399.873715,273.668418 C400.588037,272.177659 400.945193,270.624809 400.945193,269.00982 C400.945193,265.531383 399.997954,263.062351 398.103448,261.60265 C396.208942,260.142948 393.615682,259.413109 390.323589,259.413109 L380.261018,259.413109 Z M336.512902,255.313548 L336.512902,256.61795 L343.687143,256.61795 L343.687143,322.863212 L336.512902,322.676862 L336.512902,324.167619 L358.874172,324.167619 L358.874172,322.863212 L351.699932,322.863212 L351.699932,301.806349 C351.699932,299.321751 352.088144,297.023533 352.864581,294.911624 C353.641018,292.799716 354.712485,290.967353 356.079014,289.414479 C357.445543,287.861605 359.02945,286.650382 360.830783,285.780773 C362.632117,284.911163 364.526595,284.476365 366.514273,284.476365 C368.936756,284.476365 370.722534,285.25279 371.87166,286.805664 C373.020787,288.358538 373.595342,290.346186 373.595342,292.768669 L373.595342,322.863212 L366.421101,322.863212 L366.421101,324.167619 L388.782371,324.167619 L388.782371,322.863212 L381.60813,322.863212 L381.60813,295.657 C381.60813,291.308954 380.319264,288.141139 377.741494,286.15346 C375.163723,284.165782 371.825095,283.171958 367.725508,283.171958 C365.178795,283.171958 362.989276,283.56017 361.156885,284.336607 C359.324494,285.113044 357.771644,286.044754 356.498287,287.131766 C355.224931,288.218778 354.215578,289.367887 353.470199,290.579128 C352.724819,291.79037 352.19685,292.799723 351.886276,293.607217 L351.699932,293.607217 L351.699932,256.61795 L362.934917,256.61795 L362.934917,255.313542 L355.760676,255.313542 L355.760676,216.64718 L340.573647,216.64718 L340.573647,217.951587 L347.747887,217.951587 L347.747887,255.313542 L336.512902,255.313548 Z M351.187487,190 L356.028844,192.795159 L356.028844,198.385476 L351.187487,201.180635 L346.34613,198.385476 L346.34613,192.795159 L351.187487,190 Z M305.917561,243.573876 L306.942453,243.573876 C307.377257,245.064635 307.936283,246.570899 308.619548,248.092716 C309.302812,249.614532 310.218994,251.012097 311.368121,252.285454 C312.517247,253.55881 313.930341,254.59922 315.607445,255.406714 C317.284548,256.214209 319.303254,256.61795 321.663622,256.61795 C323.6513,256.61795 325.42155,256.012338 326.974424,254.801097 C328.527297,253.589855 329.303722,251.617735 329.303722,248.884677 C329.303722,246.524309 328.698111,244.862759 327.486869,243.899978 C326.275628,242.937196 324.862534,242.176299 323.247545,241.617265 L315.980133,239.101622 C315.048408,238.791047 314.039056,238.402834 312.952044,237.936972 C311.865032,237.47111 310.85568,236.818913 309.923955,235.980361 C308.992231,235.141809 308.231334,234.070343 307.641242,232.765929 C307.05115,231.461515 306.756109,229.784436 306.756109,227.734643 C306.756109,225.995424 307.097736,224.38046 307.781,222.889701 C308.464265,221.398942 309.395975,220.094548 310.576159,218.976479 C311.756343,217.85841 313.169437,216.988814 314.815483,216.367664 C316.461529,215.746515 318.247307,215.435944 320.172871,215.435944 C321.5394,215.435944 322.641923,215.544644 323.480475,215.762046 C324.319027,215.979449 325.048867,216.196848 325.670016,216.41425 C326.291166,216.631652 326.850192,216.849051 327.347111,217.066454 C327.844031,217.283856 328.434114,217.392556 329.117379,217.392556 C329.800643,217.392556 330.297555,217.1441 330.60813,216.64718 L331.633021,216.64718 L331.633021,227.268783 L330.60813,227.268783 C330.173325,225.902254 329.676413,224.582331 329.117379,223.308975 C328.558344,222.035618 327.890618,220.902038 327.114181,219.908198 C326.337745,218.914359 325.374977,218.137934 324.225851,217.5789 C323.076724,217.019865 321.725744,216.740352 320.172871,216.740352 C317.191353,216.740352 314.877606,217.408078 313.23156,218.743549 C311.585514,220.07902 310.762503,221.864798 310.762503,224.100937 C310.762503,226.088615 311.461286,227.59488 312.858872,228.619776 C314.256458,229.644673 316.321749,230.591912 319.054807,231.461521 L325.85636,233.697648 C328.775763,234.691487 331.167152,236.057996 333.030601,237.797214 C334.894049,239.536433 335.82576,241.834652 335.82576,244.691939 C335.82576,246.369043 335.499661,248.015064 334.847454,249.630053 C334.195247,251.245042 333.23248,252.658136 331.959123,253.869377 C330.685767,255.080619 329.132916,256.058914 327.300525,256.804294 C325.468134,257.549673 323.371786,257.922357 321.011418,257.922357 C319.644889,257.922357 318.387081,257.782601 317.237954,257.503083 C316.088827,257.223566 315.032889,256.928525 314.070107,256.61795 C313.107326,256.307375 312.222201,256.012333 311.414707,255.732816 C310.607212,255.453299 309.861844,255.313542 309.17858,255.313542 C308.495315,255.313542 307.998403,255.453299 307.687828,255.732816 C307.377254,256.012333 307.128797,256.307375 306.942453,256.61795 L305.917561,256.61795 L305.917561,243.573876 Z M271.075132,233.511304 C271.075132,234.132454 271.059603,234.769122 271.028546,235.421329 C270.997488,236.073536 270.98196,236.896547 270.98196,237.890386 C270.98196,239.94018 271.106188,242.083113 271.354647,244.319251 C271.603107,246.55539 272.146605,248.574095 272.985157,250.375429 C273.823709,252.176762 275.065989,253.667499 276.712035,254.847683 C278.358081,256.027867 280.5476,256.61795 283.280658,256.61795 C286.013716,256.61795 288.265349,256.214209 290.035625,255.406714 C291.805901,254.59922 293.203466,253.620924 294.228363,252.471798 C295.25326,251.322671 296.014156,250.158033 296.511076,248.977849 C297.007996,247.797665 297.38068,246.834898 297.62914,246.089519 L299.026719,246.369034 C298.840374,247.052299 298.483218,248.030595 297.955241,249.303951 C297.427264,250.577308 296.588725,251.850645 295.439599,253.124001 C294.290472,254.397358 292.737622,255.51541 290.781001,256.478192 C288.82438,257.440974 286.293234,257.922357 283.187486,257.922357 C280.081739,257.922357 277.208965,257.425445 274.56908,256.431606 C271.929195,255.437767 269.646504,254.009144 267.720941,252.145696 C265.795378,250.282247 264.304641,248.061671 263.248687,245.483901 C262.192733,242.90613 261.664764,240.033357 261.664764,236.865495 C261.664764,234.132437 262.208261,231.477063 263.295273,228.899292 C264.382285,226.321522 265.873021,224.038832 267.767527,222.051153 C269.662033,220.063475 271.882609,218.464039 274.429322,217.252798 C276.976035,216.041556 279.709052,215.435944 282.628454,215.435944 C284.367673,215.435944 286.231093,215.746515 288.218772,216.367664 C290.20645,216.988814 292.054342,217.998166 293.762503,219.395753 C295.470664,220.793339 296.899287,222.641231 298.048413,224.939484 C299.19754,227.237737 299.772095,230.094982 299.772095,233.511304 L271.075132,233.511304 Z M290.268555,232.206897 C290.392785,231.337288 290.454899,230.529805 290.454899,229.784426 L290.454899,227.455127 C290.454899,225.343219 290.253028,223.604026 289.849281,222.237497 C289.445534,220.870969 288.886508,219.783973 288.172186,218.976479 C287.457864,218.168985 286.588268,217.59443 285.563371,217.252798 C284.538474,216.911165 283.435951,216.740352 282.255766,216.740352 C280.143858,216.740352 278.404666,217.159621 277.038137,217.998173 C275.671608,218.836725 274.584613,219.970306 273.777118,221.39895 C272.969624,222.827594 272.364012,224.473615 271.960265,226.337064 C271.556518,228.200512 271.292533,230.157104 271.168304,232.206897 L290.268555,232.206897 Z M209.659283,255.313542 C210.715237,255.437772 211.941989,255.530943 213.339575,255.593058 C214.737162,255.655173 216.274484,255.68623 217.951587,255.68623 C220.063496,255.68623 222.159844,255.577531 224.240694,255.360128 C226.321545,255.142726 228.309194,254.676871 230.2037,253.962549 C232.098206,253.248227 233.868455,252.223346 235.514501,250.887874 C237.160548,249.552403 238.635755,247.797682 239.940169,245.623659 C241.927848,242.269452 243.309885,238.837652 244.086321,235.328157 C244.862758,231.818663 245.250971,227.983122 245.250971,223.821421 C245.250971,218.91434 244.785116,214.457659 243.853392,210.451245 C242.921667,206.444831 241.384345,203.02856 239.24138,200.202329 C237.098414,197.376099 234.256698,195.18658 230.716146,193.633706 C227.175593,192.080833 222.796555,191.304407 217.5789,191.304407 C216.026026,191.304407 214.612932,191.335464 213.339575,191.397579 C212.066219,191.459694 210.839467,191.521808 209.659283,191.583923 L209.659283,255.313542 Z M190,352.409903 L192.083325,352.409903 L196.928267,366.532908 L201.579411,352.361454 L203.154017,352.361454 L207.805161,366.532908 L212.650103,352.409903 L214.660754,352.409903 L208.604577,369.488323 L206.981521,369.488323 L202.330377,355.728688 L197.655008,369.488323 L196.056177,369.488323 L190,352.409903 Z M222.998712,368.955379 C221.940895,368.487033 221.032477,367.853159 220.273433,367.05374 C219.514388,366.25432 218.928963,365.325716 218.517141,364.267898 C218.105319,363.210081 217.899411,362.099792 217.899411,360.937001 C217.899411,359.725759 218.109356,358.611434 218.529253,357.545541 C218.949151,356.479649 219.538613,355.547007 220.297657,354.747587 C221.056702,353.948168 221.969157,353.310257 223.035049,352.833835 C224.100942,352.357414 225.279866,352.119207 226.571857,352.119207 C227.863848,352.119207 229.038734,352.353376 230.096552,352.821723 C231.15437,353.29007 232.062787,353.923943 232.821832,354.723363 C233.580876,355.522782 234.166301,356.451387 234.578123,357.509204 C234.989945,358.567022 235.195853,359.67731 235.195853,360.840102 C235.195853,362.051343 234.985908,363.165669 234.566011,364.231561 C234.146114,365.297454 233.556652,366.230096 232.797607,367.029515 C232.038562,367.828934 231.126107,368.466845 230.060215,368.943267 C228.994322,369.419689 227.815398,369.657896 226.523407,369.657896 C225.231417,369.657896 224.05653,369.423726 222.998712,368.955379 Z M229.248687,367.344436 C230.064256,366.981064 230.762729,366.484462 231.344125,365.854617 C231.92552,365.224771 232.381748,364.489962 232.712821,363.650168 C233.043893,362.810374 233.209427,361.905994 233.209427,360.937001 L233.209427,360.888551 C233.209427,359.919558 233.043893,359.01114 232.712821,358.163271 C232.381748,357.315402 231.917446,356.576556 231.3199,355.946711 C230.722354,355.316865 230.015807,354.816226 229.200238,354.444779 C228.384669,354.073331 227.492401,353.88761 226.523407,353.88761 C225.554414,353.88761 224.662146,354.069294 223.846577,354.432666 C223.031008,354.796039 222.332536,355.29264 221.75114,355.922486 C221.169744,356.552331 220.713516,357.28714 220.382444,358.126934 C220.051371,358.966728 219.885837,359.871109 219.885837,360.840102 L219.885837,360.888551 C219.885837,361.857544 220.051371,362.765962 220.382444,363.613831 C220.713516,364.4617 221.177819,365.200546 221.775364,365.830392 C222.37291,366.460237 223.079457,366.960876 223.895027,367.332324 C224.710596,367.703771 225.602864,367.889492 226.571857,367.889492 C227.54085,367.889492 228.433118,367.707809 229.248687,367.344436 Z M240.638959,352.409903 L247.930596,352.409903 C248.980339,352.409903 249.912981,352.559287 250.72855,352.85806 C251.54412,353.156833 252.218367,353.572686 252.751314,354.105633 C253.171211,354.52553 253.494204,355.018094 253.720302,355.58334 C253.9464,356.148586 254.059448,356.770347 254.059448,357.448643 C254.059448,358.207687 253.9464,358.841561 253.720302,359.398732 C253.494204,359.955903 253.175248,360.440392 252.763426,360.852214 C252.351604,361.264036 251.863077,361.603179 251.297831,361.869652 C250.732585,362.136125 250.118898,362.325883 249.456753,362.438933 L254.665066,369.367199 L252.315269,369.367199 L247.397653,362.778079 L242.552711,362.778079 L242.552711,369.367199 L240.638959,369.367199 L240.638959,352.409903 Z M247.761024,361.058124 C248.390869,361.058124 248.972256,360.977376 249.505203,360.815877 C250.038149,360.654378 250.498414,360.424246 250.886011,360.125473 C251.273608,359.8267 251.576414,359.463333 251.794438,359.035361 C252.012461,358.607389 252.121471,358.118862 252.121471,357.569766 L252.121471,357.521317 C252.121471,356.471574 251.741954,355.65198 250.98291,355.062509 C250.223865,354.473038 249.157989,354.178307 247.785248,354.178307 L242.552711,354.178307 L242.552711,361.058124 L247.761024,361.058124 Z M259.551003,352.409903 L265.437607,352.409903 C266.761898,352.409903 267.977159,352.623886 269.083426,353.051858 C270.189693,353.47983 271.142522,354.073329 271.941942,354.832374 C272.741361,355.591419 273.359085,356.483686 273.795132,357.509204 C274.231179,358.534722 274.449199,359.64501 274.449199,360.840102 C274.449199,362.083643 274.231179,363.197968 273.795132,364.231561 C273.359085,365.265154 272.741361,366.161459 271.941942,366.920504 C271.142522,367.679548 270.189693,368.277085 269.083426,368.713132 C267.977159,369.149179 266.761898,369.367199 265.437607,369.367199 L259.551003,369.367199 L259.551003,352.409903 Z M261.464755,354.178307 L261.464755,367.598796 L265.437607,367.598796 C266.5035,367.598796 267.472479,367.429224 268.344572,367.090077 C269.216666,366.750929 269.955513,366.282589 270.561133,365.685044 C271.166754,365.087498 271.635094,364.380951 271.966166,363.565382 C272.297239,362.749812 272.462773,361.873694 272.462773,360.937001 L272.462773,360.888551 C272.462773,359.951858 272.297239,359.07574 271.966166,358.26017 C271.635094,357.444601 271.166754,356.734017 270.561133,356.128396 C269.955513,355.522775 269.216666,355.046361 268.344572,354.699138 C267.472479,354.351915 266.5035,354.178307 265.437607,354.178307 L261.464755,354.178307 Z M284.252752,368.979604 C283.21916,368.527407 282.322854,367.909683 281.56381,367.126414 C280.804765,366.343144 280.211266,365.418577 279.783294,364.352685 C279.355322,363.286792 279.141339,362.148242 279.141339,360.937001 C279.141339,359.69346 279.355322,358.562984 279.783294,357.497092 C280.211266,356.431199 280.804765,355.498557 281.56381,354.699138 C282.322854,353.899719 283.227235,353.269883 284.276977,352.809611 C285.32672,352.349339 286.473345,352.119207 287.716886,352.119207 C288.49208,352.119207 289.190553,352.183805 289.812323,352.313004 C290.434094,352.442203 291.011444,352.623887 291.54439,352.85806 C292.077336,353.092234 292.5699,353.374852 293.022097,353.705925 C293.474294,354.036998 293.910334,354.404402 294.330231,354.808149 L293.022097,356.213182 C292.295352,355.534887 291.516132,354.977724 290.684413,354.541677 C289.852694,354.10563 288.855453,353.88761 287.692661,353.88761 C286.755968,353.88761 285.887924,354.065256 285.088505,354.420554 C284.289086,354.775851 283.594651,355.268416 283.00518,355.898261 C282.415709,356.528107 281.955444,357.266953 281.624372,358.114822 C281.293299,358.962691 281.127765,359.871109 281.127765,360.840102 C281.127765,361.873694 281.293299,362.790187 281.624372,363.638056 C281.955444,364.485925 282.415709,365.224771 283.00518,365.854617 C283.594651,366.484462 284.289086,366.981064 285.088505,367.344436 C285.887924,367.707809 286.755968,367.889492 287.692661,367.889492 C288.855453,367.889492 289.856731,367.675509 290.696525,367.247537 C291.536319,366.819565 292.359951,366.217991 293.167445,365.442796 L294.42713,366.678257 C293.991083,367.130453 293.534856,367.538232 293.058434,367.901604 C292.582013,368.264977 292.069261,368.575858 291.520165,368.834256 C290.971069,369.092654 290.381607,369.294525 289.751761,369.439873 C289.121916,369.585222 288.419406,369.657896 287.644212,369.657896 C286.41682,369.657896 285.286345,369.431801 284.252752,368.979604 Z M305.441919,352.288779 L307.234548,352.288779 L314.96223,369.367199 L312.90313,369.367199 L310.916703,364.885628 L301.687089,364.885628 L299.676438,369.367199 L297.714237,369.367199 L305.441919,352.288779 Z M310.165737,363.141449 L306.314009,354.517453 L302.438055,363.141449 L310.165737,363.141449 Z M319.702819,352.409903 L321.640796,352.409903 L327.818097,361.663742 L333.995397,352.409903 L335.933374,352.409903 L335.933374,369.367199 L334.019622,369.367199 L334.019622,355.631789 L327.842321,364.716055 L327.745422,364.716055 L321.568122,355.656014 L321.568122,369.367199 L319.702819,369.367199 L319.702819,352.409903 Z M342.127446,352.409903 L348.47432,352.409903 C349.427163,352.409903 350.295206,352.535063 351.078476,352.785386 C351.861745,353.035709 352.531956,353.391001 353.089127,353.851273 C353.646298,354.311545 354.074263,354.872745 354.373036,355.534891 C354.671809,356.197036 354.821193,356.947994 354.821193,357.787788 C354.821193,358.756781 354.643547,359.560226 354.28825,360.246596 C353.932952,360.932967 353.4525,361.510316 352.84688,361.978663 C352.241259,362.44701 351.534712,362.798265 350.727217,363.032438 C349.919723,363.266611 349.063792,363.383696 348.159398,363.383696 L344.041198,363.383696 L344.041198,369.367199 L342.127446,369.367199 L342.127446,352.409903 Z M348.232072,361.639517 C348.926518,361.639517 349.560391,361.550694 350.133712,361.373045 C350.707033,361.195397 351.199597,360.94104 351.611419,360.609967 C352.023241,360.278894 352.33816,359.887265 352.556183,359.435069 C352.774206,358.982872 352.883217,358.474158 352.883217,357.908912 L352.883217,357.860463 C352.883217,356.649221 352.467363,355.732729 351.635644,355.110958 C350.803925,354.489187 349.701712,354.178307 348.328971,354.178307 L344.041198,354.178307 L344.041198,361.639517 L348.232072,361.639517 Z M372.853694,354.178307 L367.160887,354.178307 L367.160887,352.409903 L380.484477,352.409903 L380.484477,354.178307 L374.791671,354.178307 L374.791671,369.367199 L372.853694,369.367199 L372.853694,354.178307 Z M388.652863,368.955379 C387.595045,368.487033 386.686628,367.853159 385.927583,367.05374 C385.168538,366.25432 384.583114,365.325716 384.171292,364.267898 C383.75947,363.210081 383.553562,362.099792 383.553562,360.937001 C383.553562,359.725759 383.763507,358.611434 384.183404,357.545541 C384.603301,356.479649 385.192763,355.547007 385.951808,354.747587 C386.710853,353.948168 387.623307,353.310257 388.6892,352.833835 C389.755092,352.357414 390.934017,352.119207 392.226007,352.119207 C393.517998,352.119207 394.692885,352.353376 395.750703,352.821723 C396.80852,353.29007 397.716938,353.923943 398.475982,354.723363 C399.235027,355.522782 399.820452,356.451387 400.232274,357.509204 C400.644096,358.567022 400.850004,359.67731 400.850004,360.840102 C400.850004,362.051343 400.640059,363.165669 400.220161,364.231561 C399.800264,365.297454 399.210802,366.230096 398.451758,367.029515 C397.692713,367.828934 396.780258,368.466845 395.714366,368.943267 C394.648473,369.419689 393.469549,369.657896 392.177558,369.657896 C390.885567,369.657896 389.71068,369.423726 388.652863,368.955379 Z M394.902838,367.344436 C395.718407,366.981064 396.416879,366.484462 396.998275,365.854617 C397.579671,365.224771 398.035899,364.489962 398.366971,363.650168 C398.698044,362.810374 398.863578,361.905994 398.863578,360.937001 L398.863578,360.888551 C398.863578,359.919558 398.698044,359.01114 398.366971,358.163271 C398.035899,357.315402 397.571596,356.576556 396.97405,355.946711 C396.376505,355.316865 395.669958,354.816226 394.854388,354.444779 C394.038819,354.073331 393.146551,353.88761 392.177558,353.88761 C391.208565,353.88761 390.316297,354.069294 389.500728,354.432666 C388.685158,354.796039 387.986686,355.29264 387.40529,355.922486 C386.823894,356.552331 386.367667,357.28714 386.036594,358.126934 C385.705522,358.966728 385.539988,359.871109 385.539988,360.840102 L385.539988,360.888551 C385.539988,361.857544 385.705522,362.765962 386.036594,363.613831 C386.367667,364.4617 386.831969,365.200546 387.429515,365.830392 C388.027061,366.460237 388.733608,366.960876 389.549177,367.332324 C390.364746,367.703771 391.257014,367.889492 392.226007,367.889492 C393.195001,367.889492 394.087269,367.707809 394.902838,367.344436 Z M406.29311,352.409903 L408.206862,352.409903 L408.206862,362.535831 L417.945195,352.409903 L420.416115,352.409903 L413.148702,359.822664 L420.731036,369.367199 L418.33279,369.367199 L411.816343,361.155023 L408.206862,364.812954 L408.206862,369.367199 L406.29311,369.367199 L406.29311,352.409903 Z M431.380591,362.656955 L424.331201,352.409903 L426.656773,352.409903 L432.373804,360.888551 L438.139285,352.409903 L440.367958,352.409903 L433.318568,362.63273 L433.318568,369.367199 L431.380591,369.367199 L431.380591,362.656955 Z M447.712703,368.955379 C446.654886,368.487033 445.746468,367.853159 444.987424,367.05374 C444.228379,366.25432 443.642954,365.325716 443.231132,364.267898 C442.81931,363.210081 442.613402,362.099792 442.613402,360.937001 C442.613402,359.725759 442.823348,358.611434 443.243245,357.545541 C443.663142,356.479649 444.252604,355.547007 445.011648,354.747587 C445.770693,353.948168 446.683148,353.310257 447.749041,352.833835 C448.814933,352.357414 449.993857,352.119207 451.285848,352.119207 C452.577839,352.119207 453.752726,352.353376 454.810543,352.821723 C455.868361,353.29007 456.776778,353.923943 457.535823,354.723363 C458.294868,355.522782 458.880292,356.451387 459.292114,357.509204 C459.703937,358.567022 459.909844,359.67731 459.909844,360.840102 C459.909844,362.051343 459.699899,363.165669 459.280002,364.231561 C458.860105,365.297454 458.270643,366.230096 457.511598,367.029515 C456.752554,367.828934 455.840099,368.466845 454.774206,368.943267 C453.708314,369.419689 452.52939,369.657896 451.237399,369.657896 C449.945408,369.657896 448.770521,369.423726 447.712703,368.955379 Z M453.962678,367.344436 C454.778248,366.981064 455.47672,366.484462 456.058116,365.854617 C456.639512,365.224771 457.095739,364.489962 457.426812,363.650168 C457.757884,362.810374 457.923418,361.905994 457.923418,360.937001 L457.923418,360.888551 C457.923418,359.919558 457.757884,359.01114 457.426812,358.163271 C457.095739,357.315402 456.631437,356.576556 456.033891,355.946711 C455.436345,355.316865 454.729798,354.816226 453.914229,354.444779 C453.09866,354.073331 452.206392,353.88761 451.237399,353.88761 C450.268405,353.88761 449.376138,354.069294 448.560568,354.432666 C447.744999,354.796039 447.046527,355.29264 446.465131,355.922486 C445.883735,356.552331 445.427508,357.28714 445.096435,358.126934 C444.765362,358.966728 444.599828,359.871109 444.599828,360.840102 L444.599828,360.888551 C444.599828,361.857544 444.765362,362.765962 445.096435,363.613831 C445.427508,364.4617 445.89181,365.200546 446.489356,365.830392 C447.086901,366.460237 447.793448,366.960876 448.609018,367.332324 C449.424587,367.703771 450.316855,367.889492 451.285848,367.889492 C452.254841,367.889492 453.147109,367.707809 453.962678,367.344436 Z M470.919043,367.889492 L477.072119,362.463157 C477.718115,361.881761 478.267202,361.356898 478.719399,360.888551 C479.171596,360.420204 479.534963,359.980127 479.809511,359.568305 C480.084059,359.156482 480.28593,358.752741 480.415129,358.357069 C480.544328,357.961397 480.608927,357.553618 480.608927,357.133721 C480.608927,356.633075 480.516066,356.184922 480.330342,355.78925 C480.144619,355.393578 479.898337,355.054435 479.591489,354.771812 C479.284641,354.489189 478.921274,354.271169 478.501377,354.117745 C478.08148,353.964321 477.645439,353.88761 477.193243,353.88761 C476.224249,353.88761 475.392543,354.133892 474.698098,354.626464 C474.003652,355.119035 473.317293,355.841732 472.638997,356.794575 L471.233964,355.777138 C471.621562,355.211892 472.017228,354.703178 472.420975,354.250981 C472.824722,353.798784 473.2648,353.419267 473.741222,353.11242 C474.217643,352.805572 474.750582,352.571402 475.340052,352.409903 C475.929523,352.248404 476.595696,352.167656 477.338591,352.167656 C478.097636,352.167656 478.800145,352.288778 479.446141,352.531027 C480.092136,352.773275 480.649299,353.10838 481.117646,353.536352 C481.585992,353.964324 481.949359,354.469 482.207757,355.050396 C482.466156,355.631792 482.595353,356.269703 482.595353,356.964148 C482.595353,357.626293 482.510567,358.195568 482.340993,358.72044 C482.17142,359.245311 481.913025,359.7621 481.565803,360.270821 C481.21858,360.779543 480.774465,361.300369 480.233444,361.833315 C479.692422,362.366261 479.050474,362.955723 478.307579,363.601719 L473.777559,367.62302 L482.764926,367.62302 L482.764926,369.367199 L470.919043,369.367199 L470.919043,367.889492 Z M491.345131,368.967492 C490.464962,368.50722 489.714004,367.877384 489.092233,367.077964 C488.470463,366.278545 487.994048,365.353978 487.662976,364.304235 C487.331903,363.254493 487.166369,362.132092 487.166369,360.937001 C487.166369,359.709609 487.33594,358.587209 487.675088,357.521317 C488.014236,356.455424 488.498725,355.522782 489.12857,354.723363 C489.758416,353.923943 490.513412,353.29007 491.393581,352.821723 C492.27375,352.353376 493.262915,352.119207 494.361108,352.119207 C495.44315,352.119207 496.424241,352.349339 497.30441,352.809611 C498.184579,353.269883 498.935537,353.899719 499.557308,354.699138 C500.179078,355.498557 500.655493,356.427162 500.986566,357.48498 C501.317638,358.542797 501.483172,359.66116 501.483172,360.840102 C501.483172,362.083643 501.313601,363.210081 500.974453,364.267898 C500.635306,365.325716 500.154854,366.25432 499.533083,367.05374 C498.911312,367.853159 498.156316,368.487033 497.268073,368.955379 C496.379829,369.423726 495.394701,369.657896 494.312658,369.657896 C493.214466,369.657896 492.2253,369.427763 491.345131,368.967492 Z M496.504994,367.344436 C497.142915,366.964914 497.683928,366.4562 498.12805,365.818279 C498.572172,365.180359 498.911314,364.437475 499.145488,363.589606 C499.379661,362.741737 499.496746,361.857544 499.496746,360.937001 L499.496746,360.888551 C499.496746,359.968008 499.375624,359.083815 499.133375,358.235946 C498.891127,357.388077 498.54391,356.641155 498.091713,355.99516 C497.639516,355.349165 497.094465,354.832376 496.456545,354.444779 C495.818624,354.057181 495.104003,353.863386 494.312658,353.863386 C493.521314,353.863386 492.806692,354.053144 492.168771,354.432666 C491.530851,354.812189 490.989838,355.320902 490.545716,355.958823 C490.101594,356.596743 489.758414,357.33559 489.516166,358.175384 C489.273917,359.015178 489.152795,359.903408 489.152795,360.840102 L489.152795,360.888551 C489.152795,361.809095 489.273917,362.693288 489.516166,363.541157 C489.758414,364.389026 490.105631,365.135947 490.557828,365.781942 C491.010025,366.427938 491.559113,366.944727 492.205108,367.332324 C492.851104,367.719921 493.569763,367.913717 494.361108,367.913717 C495.152452,367.913717 495.867074,367.723958 496.504994,367.344436 Z M508.597783,354.275206 L505.400121,355.268419 L504.939852,353.718037 L509.082277,352.288779 L510.48731,352.288779 L510.48731,369.367199 L508.597783,369.367199 L508.597783,354.275206 Z" id="Combined-Shape"></path>
        </g>
    </g>
</svg>